<?xml version="1.0" encoding="UTF-8"?>
<svg version="1.1" xmlns="http://www.w3.org/2000/svg" width="512" height="512">
<path d="M0 0 C2.4893836 0.54006859 4.65362553 0.44937447 7.16870117 0.10375977 C7.95760742 0.00450195 8.74651367 -0.09475586 9.55932617 -0.19702148 C11.12711598 -0.45399366 12.68866165 -0.75262957 14.24047852 -1.09301758 C33.96413279 -4.70692324 54.36990322 -0.82244493 70.91870117 10.41625977 C86.99671231 22.56749022 97.13082519 38.65522922 100.91870117 58.41625977 C101.276048 62.60844412 101.27220698 66.75826025 101.21166992 70.96313477 C101.20742508 72.10034973 101.20318024 73.2375647 101.19880676 74.40924072 C101.18218839 77.99516804 101.14456825 81.58050607 101.10620117 85.16625977 C101.09113256 87.61677241 101.077448 90.06729397 101.06518555 92.51782227 C101.03234032 98.48416474 100.98231241 104.45017013 100.91870117 110.41625977 C101.6615033 110.40737732 102.40430542 110.39849487 103.1696167 110.38934326 C110.17320023 110.30916233 117.17662452 110.2482779 124.18053818 110.20901108 C127.78128403 110.18814464 131.38165033 110.15984556 134.98217773 110.11450195 C138.4575803 110.07100852 141.93261805 110.04711555 145.40827179 110.03675079 C147.37815901 110.02577362 149.34789965 109.99455277 151.31756592 109.96307373 C153.11898041 109.96262054 153.11898041 109.96262054 154.95678711 109.9621582 C156.01379822 109.95327576 157.07080933 109.94439331 158.15985107 109.9352417 C161.65302179 110.54429191 162.79292854 111.62159086 164.91870117 114.41625977 C165.80567571 117.2334888 166.09021134 119.9037065 166.22877502 122.84552002 C166.27222046 123.7260907 166.31566589 124.60666138 166.36042786 125.51391602 C166.42516548 126.95105957 166.42516548 126.95105957 166.49121094 128.41723633 C166.54012482 129.43219177 166.5890387 130.44714722 166.63943481 131.49285889 C166.80014648 134.84736464 166.95514783 138.20210878 167.11010742 141.55688477 C167.2204282 143.88289022 167.33110484 146.20887882 167.44212341 148.53485107 C167.73336683 154.65685917 168.01976955 160.77908456 168.30517578 166.90136719 C168.59726422 173.14865689 168.89391497 179.39572975 169.19018555 185.64282227 C169.77083098 197.90042647 170.34636441 210.15826499 170.91870117 222.41625977 C171.82538103 222.41072901 171.82538103 222.41072901 172.75037766 222.40508652 C187.45596309 222.31676102 202.16153285 222.25056264 216.86732101 222.20901108 C223.97894566 222.18838306 231.09039328 222.16025818 238.2019043 222.11450195 C245.06185845 222.0703853 251.92162834 222.04713768 258.78171539 222.03675079 C261.40206044 222.02934641 264.02239514 222.01488786 266.64266205 221.99333954 C270.30618758 221.96440351 273.96894739 221.96029981 277.63256836 221.9621582 C278.7215744 221.9477771 279.81058044 221.933396 280.93258667 221.9185791 C288.26215569 221.95894774 288.26215569 221.95894774 291.56158447 224.25714111 C294.11392115 228.31780718 294.25855399 232.40436357 294.6084137 237.05885315 C294.67052141 237.84500895 294.73262912 238.63116475 294.79661888 239.44114345 C295.00446334 242.08435082 295.206814 244.72794997 295.40917969 247.37158203 C295.55679966 249.26400117 295.7047362 251.15639564 295.85296631 253.04876709 C296.25538032 258.20017592 296.65282714 263.35195667 297.0490315 268.50384641 C297.38069934 272.81196937 297.71452983 277.11992373 298.04828399 281.42788547 C298.83678364 291.60724318 299.62102192 301.78692339 300.40283203 311.96679688 C301.20690516 322.4353729 302.01886142 332.90331654 302.83466202 343.37098461 C303.53603746 352.37469266 304.23202039 361.37880716 304.92387718 370.38325161 C305.33653673 375.75295564 305.75124915 381.12248039 306.17132759 386.49160957 C306.56737938 391.55625249 306.95663549 396.62137526 307.3409729 401.68692017 C307.48209302 403.53237529 307.62549654 405.37765767 307.77152824 407.22273064 C308.48669771 416.27607286 309.07181797 425.32834616 309.25376892 434.40977478 C309.28217285 435.15834891 309.31057677 435.90692304 309.33984143 436.67818123 C309.36614282 439.87863287 309.24105036 441.95573021 307.38207251 444.61158997 C304.02027524 447.07444805 301.07678829 446.9699959 297.06628418 446.91962433 C295.86579012 446.92834497 295.86579012 446.92834497 294.64104366 446.93724179 C291.94227886 446.95191312 289.24441342 446.93792364 286.5456543 446.92419434 C284.59814232 446.92880043 282.65063382 446.93515138 280.70313263 446.94310331 C275.33825567 446.95985971 269.97366194 446.95152164 264.60878372 446.93915844 C258.8281992 446.93013603 253.04766457 446.94406368 247.26708984 446.95507812 C235.937716 446.97289802 224.60844795 446.96900791 213.2790699 446.95742756 C204.0743841 446.94840715 194.86972801 446.9471632 185.66503906 446.95152283 C184.35676541 446.95213576 183.04849175 446.95274869 181.70057344 446.9533802 C179.0431385 446.95465905 176.38570355 446.9559559 173.72826862 446.95727056 C149.49997469 446.96876304 125.27173431 446.95684476 101.04344952 446.93590017 C78.91589828 446.91691709 56.78843911 446.91861557 34.66088867 446.93774414 C9.81255409 446.95915283 -15.03572882 446.9675878 -39.88407135 446.95529509 C-42.53192646 446.95402084 -45.17978159 446.95276336 -47.82763672 446.95152283 C-49.78201259 446.95059717 -49.78201259 446.95059717 -51.7758708 446.94965282 C-60.97331443 446.94619393 -70.17072548 446.95203985 -79.36816406 446.96144104 C-90.57131358 446.97264025 -101.77435095 446.96966478 -112.97748756 446.94831806 C-118.69742636 446.93777967 -124.41717792 446.93373325 -130.13711548 446.94691467 C-135.3678255 446.9587867 -140.59817379 446.95236207 -145.82885075 446.93100446 C-147.72649812 446.9265163 -149.62417573 446.92885388 -151.52180386 446.93850762 C-154.09127114 446.9505819 -156.65948144 446.938289 -159.22888184 446.91962433 C-160.34728124 446.93367133 -160.34728124 446.93367133 -161.48827457 446.9480021 C-164.84471716 446.8989008 -166.77633691 446.6323038 -169.5447399 444.6710853 C-171.29290628 442.10573612 -171.5670592 440.90806294 -171.51865864 437.83568668 C-171.51277121 436.92233238 -171.50688379 436.00897808 -171.50081795 435.06794637 C-171.4722944 434.07228692 -171.44377084 433.07662746 -171.41438293 432.05079651 C-171.39842443 430.9920534 -171.38246593 429.93331029 -171.36602384 428.84248406 C-171.1258172 416.01001496 -170.50163148 403.18775123 -169.85713112 390.37040126 C-169.67491334 386.72055468 -169.49957624 383.07037554 -169.32321167 379.42024231 C-168.97852141 372.31016518 -168.62736709 365.20042244 -168.27343067 358.0908001 C-167.98580299 352.31300344 -167.6999831 346.53512016 -167.41538429 340.75717354 C-166.60613141 324.33288797 -165.79166381 307.90887233 -164.97078647 291.48516362 C-164.90476133 290.16412872 -164.90476133 290.16412872 -164.83740234 288.81640625 C-164.79333005 287.93463003 -164.74925776 287.05285381 -164.70384995 286.14435709 C-163.98732996 271.80189353 -163.283689 257.45882978 -162.5856761 243.11545473 C-161.86677183 228.34602787 -161.13801017 213.57711548 -160.39905864 198.80867773 C-159.98520232 190.53327402 -159.57545363 182.25771403 -159.17642784 173.98158073 C-158.83738995 166.95103722 -158.48925338 159.92101805 -158.12925609 152.89151531 C-157.94600408 149.30806919 -157.76701257 145.72454514 -157.59954643 142.14032364 C-157.41787063 138.25467181 -157.21570057 134.3702403 -157.01152039 130.48570251 C-156.96189469 129.35517879 -156.91226899 128.22465506 -156.86113948 127.05987304 C-156.53405333 121.19410899 -155.9651062 116.58467689 -153.08129883 111.41625977 C-150.4003083 110.0757645 -148.34818677 110.29645456 -145.34643555 110.30273438 C-143.54479446 110.30284767 -143.54479446 110.30284767 -141.70675659 110.30296326 C-139.75360031 110.31070518 -139.75360031 110.31070518 -137.76098633 110.31860352 C-136.4186305 110.32046839 -135.07627399 110.32189196 -133.73391724 110.32289124 C-130.19934208 110.32671098 -126.66480796 110.33653664 -123.13024902 110.34759521 C-119.52409419 110.35782099 -115.91793273 110.36239136 -112.31176758 110.36743164 C-105.23492787 110.37815939 -98.15811602 110.39522932 -91.08129883 110.41625977 C-91.09018127 109.79810898 -91.09906372 109.17995819 -91.10821533 108.54307556 C-91.19756804 102.03662482 -91.25739289 95.5303518 -91.30102539 89.0234375 C-91.32098673 86.60376898 -91.34816556 84.18414773 -91.38305664 81.76464844 C-91.71279712 58.29003603 -89.18724819 38.1201094 -72.28125 20.49291992 C-53.0344173 1.22302924 -26.81296896 -6.72660899 0 0 Z M-53.08129883 26.41625977 C-53.71551758 26.85454102 -54.34973633 27.29282227 -55.00317383 27.74438477 C-67.14601332 36.99076713 -72.6804 51.59525501 -74.68212891 66.18310547 C-75.58468805 74.50899911 -75.28558443 82.93036843 -75.20629883 91.29125977 C-75.19624109 93.15453616 -75.18712022 95.01781786 -75.17895508 96.88110352 C-75.15890192 101.39306465 -75.1197169 105.90427053 -75.08129883 110.41625977 C-64.52129883 110.41625977 -53.96129883 110.41625977 -43.08129883 110.41625977 C-43.05551758 106.8365332 -43.02973633 103.25680664 -43.00317383 99.56860352 C-42.96462432 96.05347244 -42.91950575 92.53848171 -42.8737793 89.0234375 C-42.84577067 86.60391074 -42.82445753 84.1842959 -42.81030273 81.76464844 C-42.65545128 56.77678511 -39.31550882 36.91932709 -21.20629883 18.61157227 C-18.96538106 16.80572762 -18.96538106 16.80572762 -19.08129883 15.41625977 C-32.05035475 14.362341 -42.73878456 18.87623323 -53.08129883 26.41625977 Z M28.91870117 15.41625977 C29.74370117 16.34438477 30.56870117 17.27250977 31.41870117 18.22875977 C44.84841334 34.03401065 52.3061927 50.05419514 52.43041992 70.96313477 C52.45734673 72.66895721 52.45734673 72.66895721 52.4848175 74.40924072 C52.53843326 77.99487747 52.572659 81.58038491 52.60620117 85.16625977 C52.63941728 87.61679841 52.67391082 90.06732009 52.7097168 92.51782227 C52.79650464 98.4839817 52.85699156 104.44957912 52.91870117 110.41625977 C63.47870117 110.41625977 74.03870117 110.41625977 84.91870117 110.41625977 C84.9650251 104.9757715 85.00472339 99.53598855 85.02856445 94.09545898 C85.03852043 92.25103414 85.05209009 90.40662465 85.06958008 88.56225586 C85.27089064 66.76150658 83.74506043 46.89931442 67.91870117 30.41625977 C58.65009445 21.85672678 46.56378314 15.18408763 33.66870117 15.35375977 C32.3306543 15.36729492 32.3306543 15.36729492 30.96557617 15.38110352 C30.29010742 15.39270508 29.61463867 15.40430664 28.91870117 15.41625977 Z M-11.28442383 31.44360352 C-23.9952274 45.4426642 -27.29455601 61.78321021 -27.17895508 80.14282227 C-27.177948 80.91907959 -27.17694092 81.69533691 -27.17590332 82.49511719 C-27.17074409 85.34384681 -27.15678405 88.19255507 -27.14379883 91.04125977 C-27.12317383 97.43500977 -27.10254883 103.82875977 -27.08129883 110.41625977 C-5.96129883 110.41625977 15.15870117 110.41625977 36.91870117 110.41625977 C36.95995117 104.10500977 37.00120117 97.79375977 37.04370117 91.29125977 C37.06190918 89.33043457 37.08011719 87.36960937 37.09887695 85.34936523 C37.21007742 65.0205531 35.15767804 47.16236373 20.91870117 31.41625977 C7.7569939 19.29106139 1.56684261 19.61770408 -11.28442383 31.44360352 Z " fill="#010000" transform="translate(187.081298828125,33.583740234375)"/>
<path d="M0 0 C16.17 0 32.34 0 49 0 C52.39377653 47.59857281 52.39377653 47.59857281 46.85693359 55.90283203 C41.84742166 61.09578328 35.97998649 64.07712423 29.13305664 66.22119141 C26.81918056 66.78930791 26.81918056 66.78930791 26 69 C25.89786717 71.16398524 25.86156508 73.33117529 25.85473633 75.49755859 C25.85137772 76.16442184 25.8480191 76.8312851 25.84455872 77.51835632 C25.83504052 79.72840221 25.83310509 81.93837238 25.83203125 84.1484375 C25.82881896 85.68299389 25.82545491 87.21754997 25.82194519 88.75210571 C25.81595153 91.97178863 25.8141055 95.1914447 25.81469727 98.41113281 C25.81479883 102.53604302 25.80115348 106.66078088 25.78392506 110.78565025 C25.77280329 113.95637807 25.77077812 117.12706427 25.77130699 120.2978096 C25.77012688 121.81844298 25.76570333 123.33907743 25.75797462 124.85969162 C25.7481723 126.98780099 25.75105369 129.1155369 25.75708008 131.24365234 C25.75565506 132.45451508 25.75423004 133.66537781 25.75276184 134.91293335 C25.99052865 137.88173879 26.34517881 139.55429655 28 142 C30.50609228 143.25304614 32.22443266 143.13370764 35.02880859 143.14526367 C36.60086563 143.15483345 36.60086563 143.15483345 38.2046814 143.16459656 C39.34112091 143.16570938 40.47756042 143.1668222 41.6484375 143.16796875 C42.81251129 143.17129715 43.97658508 143.17462555 45.17593384 143.17805481 C47.6423503 143.18312524 50.10877364 143.1854631 52.57519531 143.18530273 C56.35232849 143.18748689 60.12916863 143.20563526 63.90625 143.22460938 C66.29947816 143.2275437 68.69270772 143.22952823 71.0859375 143.23046875 C72.21832855 143.23765427 73.3507196 143.24483978 74.51742554 143.25224304 C75.57176788 143.24916641 76.62611023 143.24608978 77.71240234 143.24291992 C78.63902679 143.24434494 79.56565125 143.24576996 80.52035522 143.24723816 C83.18354402 142.98169936 84.7870268 142.49784616 87 141 C88.1297418 137.6107746 88.15469643 134.97882441 88.19287109 131.40478516 C88.20104858 130.73938217 88.20922607 130.07397919 88.21765137 129.38841248 C88.24244353 127.18863821 88.25900377 124.98892812 88.2734375 122.7890625 C88.28142302 121.66068026 88.28142302 121.66068026 88.28956985 120.50950241 C88.31627229 116.52913177 88.33565797 112.54879221 88.35009766 108.56835938 C88.3634468 105.27608517 88.3913201 101.98442934 88.43212891 98.69238281 C88.48143965 94.71420858 88.50621609 90.73659592 88.51332474 86.75812912 C88.5200366 85.24384808 88.53525729 83.72957955 88.55921555 82.21547318 C88.59086941 80.09431974 88.59090568 77.97533191 88.58349609 75.85400391 C88.59158295 74.64837799 88.5996698 73.44275208 88.60800171 72.20059204 C88.16399593 68.22613326 88.16399593 68.22613326 83 64 C77.06 60.04 71.12 56.08 65 52 C65 34.84 65 17.68 65 0 C101.96 0 138.92 0 177 0 C177.33 8.58 177.66 17.16 178 26 C179.5 30 179.5 30 182 31 C186.05142119 31.25860135 187.54337669 31.30441554 191 29 C192.05836661 25.82490018 192.20243789 23.35717617 192.31640625 20.01953125 C192.35451416 18.97128174 192.39262207 17.92303223 192.43188477 16.84301758 C192.47498779 15.51294678 192.51809082 14.18287598 192.5625 12.8125 C192.706875 8.584375 192.85125 4.35625 193 0 C203.89 0 214.78 0 226 0 C226.52492009 10.59717332 227.04710259 21.19447215 227.56460571 31.79201031 C227.80506718 36.714045 228.04667895 41.63601736 228.29101562 46.55786133 C228.5272279 51.3169367 228.76029311 56.07615714 228.99127197 60.83548927 C229.07947125 62.64179688 229.1687617 64.44805159 229.25921631 66.25424767 C229.75554208 76.18010517 230.14152385 86.05886211 230 96 C229.11130219 96.00546844 229.11130219 96.00546844 228.20465088 96.01104736 C222.04000577 96.05284707 215.87610694 96.12217458 209.71191406 96.20751953 C207.41120873 96.23575104 205.11040601 96.25695466 202.80957031 96.27099609 C199.50274721 96.29239486 196.19709774 96.33903108 192.890625 96.390625 C191.86132874 96.39185364 190.83203247 96.39308228 189.77154541 96.39434814 C188.81085144 96.41406677 187.85015747 96.4337854 186.86035156 96.45410156 C186.01651917 96.46298401 185.17268677 96.47186646 184.30328369 96.48101807 C181.11575648 97.19924007 180.04487708 98.47053252 178 101 C177.22627874 104.00088058 177.22627874 104.00088058 177.06340027 107.41171265 C176.95715741 108.72407206 176.85091455 110.03643147 176.74145222 111.38855934 C176.64269632 112.83633122 176.54423687 114.28412335 176.44604492 115.73193359 C176.32918023 117.25597009 176.21060411 118.77987619 176.09043407 120.30365562 C175.83799819 123.54275742 175.59631294 126.78241115 175.36294174 130.02294159 C175.01214823 134.87843302 174.63126747 139.73119465 174.24282837 144.58380127 C173.49600076 153.95074935 172.77674235 163.31969767 172.06188202 172.68913269 C171.74197664 176.87708997 171.41989027 181.06487862 171.09802246 185.25268555 C170.16740326 197.37662846 169.24014193 209.50082893 168.3125 221.625 C166.229375 248.80875 164.14625 275.9925 162 304 C103.92 304 45.84 304 -14 304 C-14 279.87813898 -14 279.87813898 -13.51319885 270.75881958 C-13.46081824 269.69538106 -13.40843762 268.63194254 -13.35446972 267.53627861 C-13.18209838 264.06184051 -13.00236005 260.58782781 -12.82250977 257.11376953 C-12.69560156 254.58646886 -12.56916062 252.05914469 -12.44314575 249.53179932 C-12.1728693 244.13161403 -11.89943769 238.73160394 -11.62301826 233.33172989 C-11.22212449 225.49982373 -10.82734672 217.66761804 -10.43396913 209.83533119 C-9.79360691 197.08841946 -9.14869484 184.34174234 -8.50073242 171.59521484 C-7.87498332 159.28542215 -7.25098194 146.97554325 -6.62963867 134.66552734 C-6.57224036 133.52838127 -6.57224036 133.52838127 -6.51368249 132.36826254 C-6.13207052 124.8072707 -5.75073959 117.24626469 -5.36947619 109.68525527 C-5.22041217 106.72913209 -5.07133451 103.77300959 -4.92224867 100.81688751 C-4.84858871 99.35631666 -4.77493365 97.89574556 -4.70128357 96.43517421 C-4.23665736 87.22174338 -3.77057504 78.00838784 -3.30279362 68.79511666 C-3.03348368 63.49066612 -2.76490259 58.18617872 -2.49632645 52.88169098 C-2.37287643 50.44668217 -2.24914356 48.01168767 -2.12508583 45.57670975 C-1.95389498 42.21622701 -1.78374251 38.85569301 -1.61378479 35.49514771 C-1.54228056 34.09965767 -1.54228056 34.09965767 -1.4693318 32.67597592 C-0.92079081 21.78611748 -0.47366322 10.89425411 0 0 Z " fill="#EA413E" transform="translate(47,160)"/>
<path d="M0 0 C53.46 0 106.92 0 162 0 C165.48747433 39.5247091 165.48747433 39.5247091 167.01701355 59.26994324 C167.07157406 59.97334908 167.12613457 60.67675492 167.18234843 61.40147609 C167.29680653 62.87740264 167.41115805 64.35333746 167.52540183 65.82928061 C167.70282565 68.12080383 167.88067616 70.41229359 168.0586338 72.70377541 C168.61988926 79.93251831 169.17970714 87.16137024 169.73729771 94.39039677 C170.37319001 102.63442736 171.01414802 110.8780443 171.65929478 119.12135571 C172.16449942 125.58050706 172.66523146 132.0399957 173.1626485 138.49975139 C173.45717989 142.32347367 173.75348398 146.14703655 174.05454063 149.97025108 C174.33628909 153.54977108 174.6124044 157.12968432 174.88446426 160.70995331 C175.03088958 162.61907257 175.18293052 164.52775865 175.33525085 166.43641663 C175.98080647 175.03240233 176 183.31904282 176 192 C113.3 192 50.6 192 -14 192 C-14 175.12478993 -14 175.12478993 -13.51319885 168.8341217 C-13.46081824 168.13682951 -13.40843762 167.43953731 -13.35446972 166.72111505 C-13.18253928 164.45042669 -13.00260479 162.18045448 -12.82250977 159.91040039 C-12.69556877 158.2562018 -12.56912906 156.60196468 -12.44314575 154.94769287 C-12.10324374 150.50355778 -11.75628728 146.06000008 -11.40785336 141.61652684 C-11.04270808 136.94545494 -10.68385705 132.27389908 -10.32420349 127.60240173 C-9.72022404 119.76905666 -9.11195647 111.93605445 -8.50073242 104.10327148 C-7.71735637 94.06408894 -6.94111183 84.02436822 -6.16709995 73.98445988 C-5.49930764 65.32308564 -4.82826219 56.66196388 -4.15669131 48.00088191 C-3.94190581 45.22910298 -3.72756184 42.45729017 -3.51327705 39.68547249 C-3.17616731 35.32760265 -2.83702285 30.96989554 -2.49632645 26.61230469 C-2.37193008 25.01765854 -2.24816306 23.42296315 -2.12508583 21.82821465 C-1.95641727 19.64433211 -1.78539367 17.46064598 -1.61378479 15.2769928 C-1.51884011 14.05758531 -1.42389544 12.83817781 -1.32607365 11.58181858 C-0.97378099 7.71199226 -0.48197775 3.855822 0 0 Z " fill="#F5AF2F" transform="translate(239,272)"/>
<path d="M0 0 C4.06500089 0.84687519 5.40462846 2.42122213 8 5.625 C8.61231995 8.89910889 8.61231995 8.89910889 8.59594727 12.65917969 C8.60203506 13.69197556 8.60203506 13.69197556 8.60824585 14.74563599 C8.61374842 16.2346473 8.6077956 17.72373613 8.59158516 19.21266937 C8.56608303 21.57683933 8.57098969 23.93927235 8.58348083 26.30352783 C8.60420573 31.32754375 8.58458448 36.3510198 8.5625 41.375 C8.54133211 47.18642263 8.53697594 52.99728148 8.56300163 58.80869293 C8.56633855 61.12488608 8.54521972 63.43997884 8.52259827 65.75604248 C8.50498946 74.69248524 9.06560104 81.93970184 14.96484375 88.96484375 C15.61582031 89.49207031 16.26679688 90.01929688 16.9375 90.5625 C17.91009766 91.38041016 17.91009766 91.38041016 18.90234375 92.21484375 C25.183674 96.43748848 31.44018251 95.95785027 38.75 95.9375 C39.89210938 95.95361328 41.03421875 95.96972656 42.2109375 95.98632812 C49.87850539 95.99073477 57.06294004 95.69457218 63.3046875 90.828125 C63.82289063 90.18359375 64.34109375 89.5390625 64.875 88.875 C65.40867187 88.24078125 65.94234375 87.6065625 66.4921875 86.953125 C70.10040509 81.38188747 71.37414987 76.92939883 71.35302734 70.30029297 C71.35518753 69.60504517 71.35734772 68.90979736 71.35957336 68.19348145 C71.36264119 66.69685687 71.35911152 65.2002067 71.34955978 63.70360947 C71.33573381 61.33225144 71.3423084 58.96172193 71.35440063 56.59036255 C71.38524969 49.85331572 71.38045023 43.11646807 71.36035156 36.37939453 C71.34942909 32.24733179 71.36262746 28.1158966 71.39024734 23.98392105 C71.3956805 22.41388463 71.39164274 20.84378513 71.37784958 19.2737999 C71.35877794 17.07880912 71.37020865 14.88587384 71.38818359 12.69091797 C71.38460342 10.82063431 71.38460342 10.82063431 71.38095093 8.91256714 C72.17035522 4.72029914 73.69718282 3.23986819 77 0.625 C80 0 80 0 83 0.625 C86.27438985 3.22590059 87.82391999 4.71481917 88.62818909 8.87219238 C88.62915085 10.10095093 88.63011261 11.32970947 88.63110352 12.59570312 C88.63825882 13.27780853 88.64541412 13.95991394 88.65278625 14.66268921 C88.66965008 16.91123126 88.65027126 19.15777052 88.62890625 21.40625 C88.62973594 22.98222009 88.63219911 24.55819008 88.63621521 26.13415527 C88.63907261 29.43963643 88.62439229 32.74443992 88.59692383 36.04980469 C88.56306436 40.25141067 88.56878432 44.45178762 88.5875864 48.65345001 C88.59825438 51.91212872 88.58912712 55.17053082 88.57420158 58.42918396 C88.56907552 59.97585727 88.56943252 61.52256021 88.57574654 63.06922913 C88.61252207 77.50654117 86.46239841 90.79390789 76.1171875 101.58984375 C65.68811104 111.26230094 54.52574376 112.9794595 40.6875 112.9375 C39.63626953 112.95361328 38.58503906 112.96972656 37.50195312 112.98632812 C24.75253308 112.99416428 13.46946933 110.24119076 3.77734375 101.65625 C-4.27239849 93.35072156 -8.07748177 82.96985887 -8.19287109 71.54907227 C-8.20104858 70.84450897 -8.20922607 70.13994568 -8.21765137 69.41403198 C-8.24240094 67.08983189 -8.2589909 64.76569226 -8.2734375 62.44140625 C-8.27876118 61.64593824 -8.28408485 60.85047024 -8.28956985 60.03089714 C-8.31625099 55.82358643 -8.33564531 51.61630493 -8.35009766 47.40893555 C-8.36345628 43.92950261 -8.39135045 40.45065345 -8.43212891 36.97143555 C-8.48142206 32.76517848 -8.50621353 28.5594522 -8.51332474 24.35291862 C-8.52003775 22.75211727 -8.53526135 21.1513278 -8.55921555 19.5506916 C-8.59084723 17.30993954 -8.59090884 15.07123908 -8.58349609 12.83032227 C-8.59158295 11.55665298 -8.5996698 10.2829837 -8.60800171 8.97071838 C-7.68273558 3.87915393 -5.08648828 1.05968506 0 0 Z " fill="#010100" transform="translate(280,303.375)"/>
<path d="M0 0 C5.28 0 10.56 0 16 0 C17.83306896 17.89805125 19.65914878 35.7967976 21.47612 53.69649029 C22.32005718 62.00871908 23.16640579 70.32068878 24.01855469 78.63208008 C24.76179666 85.88131484 25.50038864 93.13100619 26.23353863 100.3812688 C26.62143065 104.21562316 27.01155339 108.04971924 27.40725708 111.88327599 C27.7806651 115.50155536 28.14778905 119.12042064 28.51037979 122.7397995 C28.70639904 124.68078464 28.90882657 126.62111938 29.11154175 128.56141663 C31.40186431 151.64850246 31.40186431 151.64850246 26.53515625 158.51953125 C25.81779297 159.56044922 25.10042969 160.60136719 24.36132812 161.67382812 C23.2234082 163.2274707 23.2234082 163.2274707 22.0625 164.8125 C21.29742492 165.9076202 20.53503385 167.00462059 19.77539062 168.10351562 C17.89770946 170.77942179 16.03026859 173.43780793 14 176 C13.67 176 13.34 176 13 176 C9.61786911 133.74145383 6.24260265 91.48219891 2.95880127 49.21588135 C2.69601471 45.83500535 2.43141311 42.45427906 2.16522217 39.07366943 C1.85246254 35.10036999 1.54346808 31.12679542 1.23737526 27.15297699 C1.12560632 25.70974284 1.01256049 24.26660687 0.89807701 22.82358551 C0.2935109 15.19164189 -0.12551092 7.65662616 0 0 Z " fill="#E8A52D" transform="translate(417,272)"/>
<path d="M0 0 C5.28 0 10.56 0 16 0 C18.62290489 28.5183901 20.86391497 57.06575037 23.0715332 85.61889648 C23.535363 91.61358719 24.00502376 97.60779258 24.47761315 103.60179669 C24.93982736 109.46932815 25.39475019 115.33740842 25.84717751 121.20570183 C26.03755148 123.66193524 26.23007412 126.11800324 26.42493248 128.57388496 C27.4676412 141.74136529 28.30880919 154.78781506 28 168 C13.73321231 154.26489785 12.01534465 140.74256258 10.46875 121.55078125 C10.22251525 118.88443509 9.97291844 116.21861551 9.71887207 113.55302429 C9.12796017 107.27604436 8.58003924 100.99611433 8.04830217 94.713875 C7.44709399 87.63460908 6.7989166 80.55990672 6.14612484 73.48523962 C5.01735955 61.24624677 3.92864676 49.00412439 2.86956024 36.75888538 C2.18643247 28.92875718 1.43778282 21.10738702 0.58531952 13.29375935 C0.50789772 12.55999671 0.43047592 11.82623407 0.35070801 11.07023621 C0.28263191 10.44793719 0.21455582 9.82563818 0.14441681 9.18448162 C-0.05756369 6.12927852 0 3.06187232 0 0 Z " fill="#E3A12C" transform="translate(449,272)"/>
<path d="M0 0 C0.7943042 0.44714355 1.5886084 0.89428711 2.40698242 1.35498047 C3.42566406 1.68949219 4.4443457 2.02400391 5.49389648 2.36865234 C9.30485761 4.1131476 12.23776611 5.73449178 14.40698242 9.35498047 C16.51897281 17.9089902 15.52486264 27.1369133 15.15698242 35.85498047 C15.09675636 38.32360156 15.04200928 40.79236281 14.99291992 43.26123047 C14.87119597 49.29873864 14.63660405 55.31678208 14.40698242 61.35498047 C3.84698242 61.35498047 -6.71301758 61.35498047 -17.59301758 61.35498047 C-17.93896375 54.12342409 -18.23661745 46.92076755 -18.41699219 39.6875 C-18.49215791 37.23273296 -18.59433371 34.77863174 -18.72460938 32.32617188 C-19.74630439 12.58942808 -19.74630439 12.58942808 -16.15289307 7.19177246 C-12.0719538 3.08174824 -5.99827083 -1.49208469 0 0 Z " fill="#F6AF2F" transform="translate(105.593017578125,226.64501953125)"/>
<path d="M0 0 C5.28 0 10.56 0 16 0 C16.65434434 11.33547147 17.30674474 22.67105028 17.95575714 34.00682831 C18.25722058 39.27089861 18.55952386 44.53491784 18.86376953 49.79882812 C19.15754285 54.88209394 19.44907995 59.96548359 19.73908997 65.04896545 C19.84992928 66.98499595 19.96156401 68.92098109 20.07402039 70.85691833 C20.23181391 73.57571907 20.38673685 76.29466973 20.54101562 79.01367188 C20.61114616 80.20482605 20.61114616 80.20482605 20.68269348 81.42004395 C20.72476425 82.17148682 20.76683502 82.92292969 20.81018066 83.69714355 C20.84705238 84.33871147 20.8839241 84.98027939 20.92191315 85.64128876 C21.0361647 89.09239994 21 92.54699815 21 96 C15.39 96 9.78 96 4 96 C3.59017589 88.81824695 3.18128558 81.63644151 2.77319336 74.45458984 C2.63476682 72.02065661 2.49610226 69.58673689 2.35717773 67.15283203 C1.89776174 59.10227164 1.4449411 51.05137354 1 43 C0.9456076 42.02293091 0.89121521 41.04586182 0.83517456 40.03918457 C0.28711776 30.10216098 -0.15225549 20.20595493 -0.0625 10.25 C-0.05798828 9.24324219 -0.05347656 8.23648438 -0.04882812 7.19921875 C-0.03740066 4.79945118 -0.01949227 2.39971561 0 0 Z " fill="#CE322F" transform="translate(289,160)"/>
<path d="M0 0 C5.28 0 10.56 0 16 0 C16.52492009 10.59717332 17.04710259 21.19447215 17.56460571 31.79201031 C17.80506718 36.714045 18.04667895 41.63601736 18.29101562 46.55786133 C18.5272279 51.3169367 18.76029311 56.07615714 18.99127197 60.83548927 C19.07947125 62.64179688 19.1687617 64.44805159 19.25921631 66.25424767 C19.75577046 76.18467234 20.10289452 86.05460108 20 96 C15.05 96 10.1 96 5 96 C4.34346393 85.55059989 3.69066941 75.10098377 3.04424286 64.65095329 C2.74385401 59.7972669 2.44190276 54.94368878 2.13623047 50.09033203 C1.84064585 45.39618778 1.54936177 40.70179372 1.26091003 36.00720596 C1.15078612 34.22680482 1.03917932 32.44649469 0.92597961 30.66628647 C0.27539094 20.41775561 -0.1212258 10.27388616 0 0 Z " fill="#CE322F" transform="translate(321,160)"/>
<path d="M0 0 C0.66 0 1.32 0 2 0 C3.69580078 2.18725586 3.69580078 2.18725586 5.6953125 5.21484375 C6.41074219 6.29314453 7.12617188 7.37144531 7.86328125 8.48242188 C8.41943115 9.33211548 8.41943115 9.33211548 8.98681641 10.19897461 C10.12080262 11.93108869 11.26449095 13.65645339 12.41015625 15.38085938 C18 23.84649073 18 23.84649073 18 25 C6.78 25 -4.44 25 -16 25 C-13.69 21.37 -11.38 17.74 -9 14 C-8.14792969 12.63488281 -7.29585938 11.26976562 -6.41796875 9.86328125 C-5.6745256 8.67965833 -4.93103768 7.49606354 -4.1875 6.3125 C-3.80658203 5.69439453 -3.42566406 5.07628906 -3.03320312 4.43945312 C-2.07534005 2.9246539 -1.04412987 1.45667813 0 0 Z " fill="#E7A42D" transform="translate(455,439)"/>
</svg>
