<?xml version="1.0" encoding="UTF-8"?>
<svg version="1.1" xmlns="http://www.w3.org/2000/svg" width="512" height="512">
<path d="M0 0 C10.70725314 7.62630286 17.32394209 17.44935342 19.75 30.3984375 C20.15562534 34.36173512 20.08049411 38.16369815 19.8125 42.125 C19.76617432 42.88216309 19.71984863 43.63932617 19.67211914 44.41943359 C19.03219743 54.31675627 18.07985912 64.19145269 17.125 74.0625 C18.01960938 73.41023438 18.91421875 72.75796875 19.8359375 72.0859375 C31.41466224 63.69019599 42.61067688 56.91049528 56.125 52.0625 C57.04410156 51.71832031 57.96320313 51.37414062 58.91015625 51.01953125 C73.04148405 46.58658159 91.57932688 46.97597755 105.125 53.0625 C106.25679688 53.54847656 107.38859375 54.03445312 108.5546875 54.53515625 C128.90516258 63.95337393 143.4809547 79.52812024 153.5625 99.375 C153.8925 100.02017578 154.2225 100.66535156 154.5625 101.33007812 C158.28150674 108.93147893 159.49695887 116.00708206 159.4375 124.4375 C159.43186035 125.27385986 159.4262207 126.11021973 159.42041016 126.97192383 C159.21878369 137.22792372 156.94981643 144.31584817 150.125 152.0625 C149.62226563 152.66964844 149.11953125 153.27679688 148.6015625 153.90234375 C143.72448401 159.33850197 137.71660988 162.1076404 131.125 165.0625 C134.6009037 167.82405757 138.36373724 170.01666037 142.1875 172.25 C178.62165768 193.89239972 209.59307542 228.46672626 223.125 269.0625 C223.68291389 276.09221498 223.68291389 276.09221498 221.6875 279.5625 C217.43792452 282.05005638 212.67692949 281.61164893 207.93307495 280.59082031 C205.71843674 279.93728625 203.54758008 279.20847479 201.37109375 278.4375 C200.58477066 278.17114746 199.79844757 277.90479492 198.98829651 277.63037109 C196.50846141 276.78713361 194.03561216 275.92523037 191.5625 275.0625 C189.86956895 274.48312193 188.17621257 273.90498508 186.48242188 273.328125 C182.35822944 271.92053918 178.24018677 270.49619027 174.125 269.0625 C174.04983154 269.67955811 173.97466309 270.29661621 173.8972168 270.93237305 C173.13052302 277.20326752 172.3469314 283.47185614 171.54833984 289.73876953 C171.27560246 291.8800883 171.00493359 294.02167205 170.73681641 296.16357422 C170.37775068 299.00652989 170.00366936 301.84709734 169.625 304.6875 C169.51889404 305.54432373 169.41278809 306.40114746 169.3034668 307.28393555 C168.64866171 312.06243654 167.70859955 315.88392318 165.125 320.0625 C161.96703893 321.64148053 158.51829364 321.88178171 155.125 321.0625 C149.84917112 316.8806557 146.76890774 310.99693752 143.3125 305.3125 C141.98156631 303.15557236 140.64949694 300.99934517 139.31640625 298.84375 C138.62949707 297.73 137.94258789 296.61625 137.23486328 295.46875 C125.7043914 276.81787252 114.2429704 258.99994917 99.125 243.0625 C99.24617188 243.64515625 99.36734375 244.2278125 99.4921875 244.828125 C100.05261649 247.56991606 100.58991896 250.31564805 101.125 253.0625 C101.38071777 254.34290161 101.38071777 254.34290161 101.64160156 255.64916992 C103.12336144 263.68503501 103.56554394 271.66669439 103.90048218 279.80917358 C105.99325724 328.50903121 118.68026364 377.0654008 149.5078125 415.83984375 C151.125 418.0625 151.125 418.0625 151.125 420.0625 C151.785 420.248125 152.445 420.43375 153.125 420.625 C158.45114985 423.17711347 162.61109037 427.02818393 166.125 431.75 C167.95780178 437.82115591 168.58770189 445.05493673 165.625 450.875 C149.69343738 472.8208442 115.87094331 478.53591822 91.01269531 482.48779297 C83.85726939 483.5455594 76.68619039 484.43001295 69.5 485.25 C68.48885132 485.36822113 68.48885132 485.36822113 67.45727539 485.48883057 C37.92340906 488.88751199 8.31123499 489.43933206 -21.38251877 489.38035583 C-24.22979617 489.37491924 -27.07706526 489.3725495 -29.92434692 489.3704834 C-57.33175167 489.33948779 -84.59895572 489.0086116 -111.875 486.0625 C-112.59260498 485.98753296 -113.31020996 485.91256592 -114.04956055 485.83532715 C-192.71630505 477.61304681 -192.71630505 477.61304681 -213.875 453.0625 C-217.87273495 447.73218674 -217.74479453 441.47195679 -216.875 435.0625 C-214.50093569 428.28437437 -208.80621597 423.79135876 -202.875 420.0625 C-202.215 420.0625 -201.555 420.0625 -200.875 420.0625 C-200.63523437 419.53527344 -200.39546875 419.00804687 -200.1484375 418.46484375 C-198.84210894 416.00045092 -197.33588821 413.74043817 -195.75341797 411.44628906 C-184.8676748 395.62867238 -175.58332535 379.07250023 -168.875 361.0625 C-168.56723633 360.23814453 -168.25947266 359.41378906 -167.94238281 358.56445312 C-164.29488455 348.6167306 -161.34613551 338.59742728 -159.0625 328.25 C-158.86760986 327.36860352 -158.67271973 326.48720703 -158.47192383 325.57910156 C-155.38440774 310.74704985 -154.44907236 295.86408678 -153.84594727 280.77148438 C-153.40005883 269.92191851 -152.08221288 259.6992356 -149.875 249.0625 C-149.53154449 247.06421338 -149.19456852 245.06474551 -148.875 243.0625 C-162.16194561 255.34735753 -171.26132944 270.62521895 -180.82910156 285.81591797 C-183.43925941 289.95790831 -186.06436041 294.09027523 -188.69238281 298.22094727 C-189.85744798 300.05241586 -191.02097812 301.88486229 -192.18261719 303.71850586 C-193.739209 306.17143907 -195.30392223 308.61882236 -196.875 311.0625 C-197.4225293 311.91585938 -197.97005859 312.76921875 -198.53417969 313.6484375 C-199.06688477 314.46570313 -199.59958984 315.28296875 -200.1484375 316.125 C-200.62458496 316.85847656 -201.10073242 317.59195312 -201.59130859 318.34765625 C-202.875 320.0625 -202.875 320.0625 -204.875 321.0625 C-212.08016499 321.64356169 -212.08016499 321.64356169 -215.0390625 319.48046875 C-217.42431581 316.33903939 -217.77740539 313.96259114 -218.375 310.0625 C-218.48755127 309.35206543 -218.60010254 308.64163086 -218.71606445 307.90966797 C-219.12214083 305.29658409 -219.49862629 302.68002798 -219.875 300.0625 C-220.23295447 297.64841993 -220.59103583 295.23435868 -220.94921875 292.8203125 C-221.67853136 287.84262643 -222.40169958 282.86417865 -223.10546875 277.8828125 C-223.25395264 276.83367676 -223.40243652 275.78454102 -223.55541992 274.70361328 C-223.875 272.0625 -223.875 272.0625 -223.875 269.0625 C-225.44012329 269.60777344 -225.44012329 269.60777344 -227.03686523 270.1640625 C-230.94032944 271.51986181 -234.84989338 272.85727255 -238.76147461 274.18945312 C-240.44774153 274.7665505 -242.1323559 275.34850182 -243.81518555 275.93554688 C-246.24621118 276.78262425 -248.68281187 277.61157669 -251.12109375 278.4375 C-251.86209824 278.69998535 -252.60310272 278.9624707 -253.36656189 279.23291016 C-258.52768023 280.95490705 -263.43137863 281.74256696 -268.875 281.0625 C-271.4375 279.5625 -271.4375 279.5625 -272.875 277.0625 C-273.321073 270.99849318 -272.42228182 266.71310333 -270 261.1875 C-269.68973877 260.46135498 -269.37947754 259.73520996 -269.05981445 258.98706055 C-262.92448611 245.01538743 -255.1252408 232.17053877 -245.875 220.0625 C-245.21628906 219.17949219 -244.55757812 218.29648438 -243.87890625 217.38671875 C-225.7345984 194.07853381 -202.79520244 177.63772877 -176.875 164.0625 C-177.53886719 163.60359375 -178.20273438 163.1446875 -178.88671875 162.671875 C-180.21123047 161.75148437 -180.21123047 161.75148437 -181.5625 160.8125 C-182.43261719 160.20921875 -183.30273438 159.6059375 -184.19921875 158.984375 C-188.88102709 155.6216747 -192.44340164 152.71894686 -195.5625 147.8125 C-196.14386719 146.92046875 -196.72523438 146.0284375 -197.32421875 145.109375 C-202.75782065 134.43378436 -202.55154887 119.75052098 -199.4375 108.375 C-194.93885781 95.94037283 -187.72676972 84.81919042 -178.875 75.0625 C-178.32585937 74.43214844 -177.77671875 73.80179687 -177.2109375 73.15234375 C-165.23872863 60.20702431 -145.77913978 49.443361 -128.078125 48.62890625 C-126.09389334 48.60501969 -124.10926699 48.60425517 -122.125 48.625 C-120.54585815 48.6396228 -120.54585815 48.6396228 -118.93481445 48.65454102 C-100.2736758 49.07706277 -81.70272667 56.70793453 -66.875 68.0625 C-67.00777344 67.10730469 -67.14054688 66.15210937 -67.27734375 65.16796875 C-68.32738799 57.48041859 -69.36105085 49.80844792 -69.875 42.0625 C-69.92914063 41.31871094 -69.98328125 40.57492188 -70.0390625 39.80859375 C-70.53385715 27.23631159 -65.89694197 15.06944266 -57.4375 5.875 C-41.58567059 -9.23787195 -18.4328833 -11.67516504 0 0 Z M-44.6015625 17.734375 C-51.4326782 25.33945947 -53.06564209 32.65871958 -52.80569839 42.75389862 C-52.61428179 45.51670942 -52.36352511 48.26693507 -52.08642578 51.02246094 C-51.9906424 52.05645523 -51.89485901 53.09044952 -51.7961731 54.15577698 C-51.48050591 57.53712936 -51.15060142 60.91692226 -50.8203125 64.296875 C-50.59624445 66.66327179 -50.37302201 69.02974879 -50.15060425 71.39630127 C-49.56486913 77.60206194 -48.96678316 83.80657361 -48.36633301 90.01092529 C-47.87835825 95.07482198 -47.3991764 100.1395325 -46.92045784 105.20431137 C-46.34829228 111.25627414 -45.77242021 117.3078817 -45.1953125 123.359375 C-45.08573338 124.50885368 -44.97615425 125.65833237 -44.86325455 126.84264374 C-44.55158447 130.10199384 -44.23744272 133.3610951 -43.92236328 136.62011719 C-43.83088013 137.57819778 -43.73939697 138.53627838 -43.6451416 139.52339172 C-43.51469955 140.86445229 -43.51469955 140.86445229 -43.38162231 142.23260498 C-43.30750185 143.00092022 -43.23338139 143.76923546 -43.15701485 144.56083298 C-42.7990038 147.73663893 -42.32697158 150.89869895 -41.875 154.0625 C-30.655 154.0625 -19.435 154.0625 -7.875 154.0625 C-5.39437327 130.54615855 -3.04613365 107.01709518 -0.79715824 83.47750759 C-0.39103724 79.22728367 0.01839364 74.97744487 0.43630981 70.72836304 C0.83732471 66.6485077 1.22820345 62.56779681 1.61193085 58.48628044 C1.75648481 56.96626287 1.90446405 55.44656639 2.05619049 53.927248 C4.0502479 36.05194418 4.0502479 36.05194418 -2.875 20.0625 C-8.68389405 13.80302088 -15.08104875 9.85509789 -23.7734375 9.06640625 C-31.89172436 9.0513165 -38.80143528 12.11796221 -44.6015625 17.734375 Z M-144.875 71.0625 C-145.75414062 71.50851563 -146.63328125 71.95453125 -147.5390625 72.4140625 C-154.11819198 76.06008162 -159.53081227 80.8062101 -164.875 86.0625 C-165.57625 86.75085938 -166.2775 87.43921875 -167 88.1484375 C-176.61364421 98.25027458 -183.86496213 111.11880871 -184.25 125.1875 C-184.0370874 132.81140897 -183.03844271 137.20747968 -177.5 142.6875 C-160.72756364 156.26952727 -132.4675177 156.6616591 -111.875 159.0625 C-110.96693604 159.16997559 -110.05887207 159.27745117 -109.12329102 159.38818359 C-101.41627075 160.1992956 -93.70011746 160.28261475 -85.95825195 160.30273438 C-83.68079275 160.31252885 -81.40420538 160.34370092 -79.12695312 160.375 C-71.85877437 160.42621162 -65.51244351 160.40320004 -58.875 157.0625 C-58.8479957 155.60426788 -58.82860213 154.14589325 -58.8125 152.6875 C-58.80089844 151.87539062 -58.78929687 151.06328125 -58.77734375 150.2265625 C-58.73033666 148.01312858 -58.73033666 148.01312858 -59.875 146.0625 C-62.42071009 145.4043157 -62.42071009 145.4043157 -65.54296875 144.984375 C-66.73567383 144.79625244 -67.92837891 144.60812988 -69.15722656 144.41430664 C-71.09033691 144.11641235 -71.09033691 144.11641235 -73.0625 143.8125 C-85.93117146 141.73341294 -98.42009198 138.94377377 -110.875 135.0625 C-111.66358398 134.81886719 -112.45216797 134.57523437 -113.26464844 134.32421875 C-134.25850001 127.71782372 -134.25850001 127.71782372 -141.5703125 120.35546875 C-142.80562333 118.82786345 -142.80562333 118.82786345 -144.875 119.0625 C-145.1225 118.52625 -145.37 117.99 -145.625 117.4375 C-146.9117419 114.88895736 -146.9117419 114.88895736 -148.9375 112 C-151.63181231 107.91507488 -152.0531136 104.99190804 -152.125 100.1875 C-152.15078125 99.15882812 -152.1765625 98.13015625 -152.203125 97.0703125 C-151.7067307 92.52003138 -149.83604161 89.97159341 -146.5625 86.875 C-135.58214705 79.46964568 -120.22580449 81.80625653 -107.875 84.0625 C-94.73750702 86.72497174 -82.35746735 91.28379827 -69.95532227 96.29394531 C-67.94545342 97.03647167 -65.96216425 97.58540023 -63.875 98.0625 C-64.12642097 94.28571982 -64.51354699 92.46704438 -67.0703125 89.60546875 C-88.69723704 72.21742142 -117.56846171 56.92295004 -144.875 71.0625 Z M28.125 88.0625 C27.238125 88.84109375 26.35125 89.6196875 25.4375 90.421875 C21.55983766 93.87119092 17.77021197 97.36735362 14.125 101.0625 C14.455 101.7225 14.785 102.3825 15.125 103.0625 C16.05957031 102.56621094 16.99414062 102.06992188 17.95703125 101.55859375 C41.34735221 89.3680804 72.44627658 76.81592717 99.125 84.0625 C103.36271868 85.69811072 106.19201111 87.58636502 109.125 91.0625 C111.20945971 97.31587913 111.22441634 104.64556873 108.3125 110.625 C107.18926092 112.62617307 106.1388259 114.04907007 104.48828125 115.65234375 C102.89331453 116.97525231 102.89331453 116.97525231 103.125 119.0625 C102.5475 119.33449219 101.97 119.60648438 101.375 119.88671875 C99.12843412 121.06070543 97.18251337 122.39811067 95.125 123.875 C74.02121097 137.97834121 44.15720799 142.74400759 19.42749023 145.07495117 C18.37376221 145.17783447 17.32003418 145.28071777 16.234375 145.38671875 C14.82623535 145.5117981 14.82623535 145.5117981 13.38964844 145.6394043 C10.93312237 145.87756359 10.93312237 145.87756359 9.125 148.0625 C8.88246187 150.27322977 8.88246187 150.27322977 9 152.6875 C9.02707031 153.91339844 9.02707031 153.91339844 9.0546875 155.1640625 C9.08949219 156.10378906 9.08949219 156.10378906 9.125 157.0625 C15.3304944 159.7219976 20.97188491 160.24512256 27.68359375 160.3359375 C28.52818146 160.34837494 29.37276917 160.36081238 30.24295044 160.37362671 C47.87615219 160.5816094 65.19902199 160.21339265 82.6875 157.8125 C83.44376678 157.71007996 84.20003357 157.60765991 84.97921753 157.50213623 C93.31503736 156.34685665 101.55002484 154.83997815 109.76953125 153.03515625 C110.50111954 152.87452698 111.23270782 152.71389771 111.98646545 152.54840088 C123.62089429 149.90242588 134.31906732 146.42158441 141.125 136 C144.41651415 126.42664186 142.42345475 115.90103862 138.125 107.0625 C133.88288433 98.63321835 128.77015136 91.74065708 122.125 85.0625 C121.38765625 84.29035156 120.6503125 83.51820312 119.890625 82.72265625 C108.49540973 71.53775536 93.88132832 65.58544781 78.07519531 65.63305664 C59.12169058 66.06878903 42.08020294 75.71025956 28.125 88.0625 Z M-135.875 100.0625 C-134.46296746 105.39684513 -131.29274286 108.07155838 -126.875 111.0625 C-107.54726235 122.22567874 -82.91387088 127.15209899 -60.875 129.0625 C-60.30999456 125.18745043 -60.19960726 122.70267149 -61.875 119.0625 C-66.71208353 114.88148439 -73.05229183 112.53534173 -78.875 110.0625 C-79.5457959 109.76859375 -80.2165918 109.4746875 -80.90771484 109.171875 C-96.21373039 102.55811643 -119.63745309 93.84335014 -135.875 100.0625 Z M20.125 118.6875 C19.44816162 119.03522461 18.77132324 119.38294922 18.07397461 119.74121094 C14.70892861 121.61034222 13.25594005 122.76432673 11.6875 126.3359375 C11.501875 127.23570312 11.31625 128.13546875 11.125 129.0625 C35.40053088 130.25637857 69.47087098 122.91825768 89.125 108.0625 C91.23703691 106.12489471 92.55180007 104.50367231 94.125 102.0625 C93.63 100.5775 93.63 100.5775 93.125 99.0625 C68.41069945 94.54424682 41.33674412 107.34948142 20.125 118.6875 Z M-157.375 174.375 C-158.22594238 174.73674316 -159.07688477 175.09848633 -159.95361328 175.47119141 C-197.78841726 191.90138934 -231.68968848 219.77623636 -248.875 258.0625 C-241.86650713 256.67281362 -235.31063951 254.59316405 -228.625 252.09765625 C-223.51017837 250.29503682 -218.30171935 248.96326242 -212.875 250.0625 C-209.24730602 252.85339344 -209.01381531 256.32209144 -208.375 260.625 C-208.25535889 261.36355225 -208.13571777 262.10210449 -208.01245117 262.86303711 C-207.75789092 264.43787024 -207.50828417 266.01351065 -207.26318359 267.58984375 C-206.73398407 270.96074488 -206.16505245 274.32456267 -205.59765625 277.68920898 C-205.01562812 281.1456939 -204.44533777 284.60406886 -203.875 288.0625 C-199.86851665 284.53010169 -197.48751605 280.36137296 -194.8125 275.8125 C-187.05274535 262.88787993 -178.78366113 250.45661629 -168.875 239.0625 C-168.04613281 238.09957031 -167.21726562 237.13664062 -166.36328125 236.14453125 C-157.36679051 225.89256132 -147.36639927 217.24433149 -135.9375 209.8125 C-128.23106008 204.7713751 -122.3585446 198.58581102 -116.23828125 191.7578125 C-112.92820291 188.06505 -109.39392324 184.74809972 -105.609375 181.54296875 C-103.94378766 180.12121739 -102.40147202 178.63137402 -100.875 177.0625 C-102.85047949 175.08702051 -106.53040394 175.42085419 -109.2421875 175.125 C-109.99154572 175.04000244 -110.74090393 174.95500488 -111.51296997 174.86743164 C-113.10835355 174.68725999 -114.70397487 174.50918332 -116.29980469 174.33300781 C-118.70557643 174.06740448 -121.11063912 173.79605544 -123.515625 173.5234375 C-126.58899493 173.17583447 -129.66340102 172.84165688 -132.73925781 172.5168457 C-135.21373857 172.25396111 -137.66316451 171.95004873 -140.12792969 171.59838867 C-146.75600403 170.72312509 -151.2952566 171.66280521 -157.375 174.375 Z M84.9140625 173.15625 C83.94592621 173.26723022 82.97778992 173.37821045 81.98031616 173.49255371 C78.90316899 173.846031 75.82658872 174.20419789 72.75 174.5625 C70.65758781 174.80369559 68.56514024 175.04458442 66.47265625 175.28515625 C61.35635416 175.87405184 56.24055517 176.46715249 51.125 177.0625 C53.96720221 179.92103 56.79763666 182.70857718 59.875 185.3125 C65.64927847 190.32413792 71.24013666 195.57766128 75.9375 201.625 C79.29887006 205.6642154 83.59451599 208.15504665 87.98046875 210.97265625 C113.1344375 227.68989014 130.70076774 251.59519084 145.97070312 277.15966797 C148.22690875 280.8789714 150.64770447 284.48766848 153.125 288.0625 C155.3544422 284.7183367 155.61587538 282.80203688 156.125 278.85546875 C156.29 277.62892578 156.455 276.40238281 156.625 275.13867188 C156.79 273.85541016 156.955 272.57214844 157.125 271.25 C157.45301725 268.72196079 157.78617701 266.1945824 158.125 263.66796875 C158.269375 262.54543701 158.41375 261.42290527 158.5625 260.26635742 C159.13157567 257.02504668 159.90020799 254.11688137 161.125 251.0625 C166.52841583 248.36079209 172.72217731 250.06322175 178.1484375 251.84765625 C180.27046724 252.59312767 182.38764725 253.35253401 184.5 254.125 C186.62991864 254.89477346 188.7626254 255.65688918 190.8984375 256.41015625 C191.83091309 256.75054932 192.76338867 257.09094238 193.72412109 257.44165039 C196.24316242 258.32514968 196.24316242 258.32514968 199.125 257.0625 C187.02176229 234.51557018 171.3418227 214.84148357 151.125 199.0625 C149.63419922 197.886875 149.63419922 197.886875 148.11328125 196.6875 C129.73970301 182.65841317 108.28015623 170.41273668 84.9140625 173.15625 Z M-198.875 438.0625 C-199.83431722 440.06586443 -199.83431722 440.06586443 -199.875 442.0625 C-199.545 442.7225 -199.215 443.3825 -198.875 444.0625 C-196.79250089 443.07261253 -194.85017672 442.04595114 -192.9296875 440.765625 C-170.54729389 425.84402926 -139.1084441 423.92809536 -113.10742188 421.28967285 C-111.63447156 421.13978437 -110.16180339 420.98709332 -108.68945312 420.8314209 C-53.13425573 414.97421314 5.58376811 415.19009428 61.125 421.0625 C62.61456181 421.21407888 64.10414521 421.3654457 65.59375 421.51660156 C131.77455151 428.34969116 131.77455151 428.34969116 145.72265625 442.70703125 C147.03961565 444.29416253 147.03961565 444.29416253 149.125 444.0625 C149.455 442.4125 149.785 440.7625 150.125 439.0625 C88.16534248 393.25412399 -35.99909234 405.19405555 -198.875 438.0625 Z M13.125 434.0625 C13.30417969 435.12726563 13.48335938 436.19203125 13.66796875 437.2890625 C15.4728099 449.12399656 15.68033836 459.50009566 9.125 470.0625 C9.125 470.7225 9.125 471.3825 9.125 472.0625 C19.24516445 472.31964704 29.29058467 471.55803325 39.375 470.8125 C40.72643097 470.71313141 40.72643097 470.71313141 42.10516357 470.61175537 C88.39457982 467.92776506 88.39457982 467.92776506 132.125 454.0625 C132.125 453.4025 132.125 452.7425 132.125 452.0625 C96.32900351 436.19069024 51.76799601 435.0180167 13.125 434.0625 Z M-181.875 452.0625 C-181.875 452.7225 -181.875 453.3825 -181.875 454.0625 C-145.90128746 470.01310839 -97.9455678 472.82197108 -58.875 472.0625 C-60.23283937 468.62140531 -60.23283937 468.62140531 -61.7265625 465.23828125 C-65.59862963 455.91011953 -64.80430996 443.81796248 -62.875 434.0625 C-98.0447355 433.4454871 -150.63736231 434.87395062 -181.875 452.0625 Z " fill="#B3404A" transform="translate(280.875,14.9375)"/>
<path d="M0 0 C1.15048828 1.01513672 1.15048828 1.01513672 2.32421875 2.05078125 C3.14277344 2.73785156 3.96132813 3.42492187 4.8046875 4.1328125 C15.80585585 13.5989341 23.70514184 24.28439749 30.32421875 37.05078125 C30.86949219 38.08847656 31.41476562 39.12617188 31.9765625 40.1953125 C38.94145781 54.28460454 42.18734513 69.1455619 42.71875 84.7734375 C42.78459511 86.45259682 42.85153032 88.13171367 42.91943359 89.81079102 C42.95429871 90.67745392 42.98916382 91.54411682 43.02508545 92.43704224 C43.68333944 108.21768287 44.70109568 123.62425448 48.32421875 139.05078125 C48.57606934 140.12803467 48.57606934 140.12803467 48.83300781 141.22705078 C49.86938204 145.5418965 51.06361473 149.79687047 52.32421875 154.05078125 C52.59621094 155.04980469 52.86820312 156.04882812 53.1484375 157.078125 C59.00986056 177.68593367 68.57133895 197.57157592 79.32421875 216.05078125 C73.92435864 215.1035171 68.54078666 214.12264182 63.1875 212.9375 C35.75080269 206.94437359 7.34766072 203.68761996 -20.67578125 202.05078125 C-21.35391876 202.00981323 -22.03205627 201.96884521 -22.73074341 201.92663574 C-84.9465317 198.25763811 -153.45766131 198.03690848 -213.75439453 215.70874023 C-215.67578125 216.05078125 -215.67578125 216.05078125 -218.67578125 215.05078125 C-217.98355469 213.90029297 -217.98355469 213.90029297 -217.27734375 212.7265625 C-195.42949784 175.55068241 -184.48601949 136.61290353 -182.57128906 93.64331055 C-180.97351895 58.56932493 -170.7660312 28.66776122 -144.86328125 4.30078125 C-131.17491687 -8.10631835 -114.49248038 -16.43622533 -96.67578125 -20.94921875 C-95.55042969 -21.29339844 -94.42507812 -21.63757813 -93.265625 -21.9921875 C-62.46998839 -30.20212327 -24.18094259 -20.58377757 0 0 Z " fill="#F3B1AF" transform="translate(325.67578125,207.94921875)"/>
<path d="M0 0 C1.71205242 -0.01655098 3.42403599 -0.04383008 5.13574219 -0.08203125 C7.60184635 -0.1368071 10.06632838 -0.15867444 12.53295898 -0.17333984 C13.67846977 -0.2073439 13.67846977 -0.2073439 14.84712219 -0.24203491 C18.72582879 -0.22662193 20.37682258 -0.02717725 23.20141602 2.72924805 C27.06876445 9.21814855 27.64707694 14.88093647 26.76342773 22.35009766 C24.53777442 29.75168892 20.47293558 34.5887069 13.76342773 38.35009766 C7.31659389 41.38083861 0.11414946 41.43559495 -6.61157227 39.10009766 C-12.48666098 36.52225261 -16.06617304 32.92562732 -19.23657227 27.35009766 C-21.59995996 21.08712026 -22.64018433 14.91971539 -20.15063477 8.58837891 C-15.20390418 -1.43375444 -10.46061628 0.07419588 0 0 Z " fill="#F3B0AE" transform="translate(253.236572265625,447.64990234375)"/>
</svg>
