<svg id="Layer_1" data-name="Layer 1" xmlns="http://www.w3.org/2000/svg" viewBox="0 0 216.92 60.1"><defs><style>.cls-1{fill:#4352a1;}.cls-2{fill:#4a57a4;}.cls-3{fill:#7983bd;}.cls-4{fill:#ed1f80;}.cls-5{fill:#4351a2;}.cls-6{fill:#4252a3;}.cls-7{fill:#4352a3;}.cls-8{fill:#4554a4;}.cls-9{fill:#4554a2;}.cls-10{fill:#4553a2;}.cls-11{fill:#4c5aa7;}</style></defs><path class="cls-1" d="M46,105.05c.13-.83,0-1.18-.78-1.47A3.62,3.62,0,0,1,43,101a3.58,3.58,0,0,0-2.18-2.34c-.24-.1-.46-.23-.7-.34a3.15,3.15,0,0,1-1.94-2.7,5.33,5.33,0,0,0-1.66-3.48A1,1,0,0,1,36.08,91a.81.81,0,0,1,1-.52,3.17,3.17,0,0,1,2.32,2.69c.17.81.35,1.61.56,2.41a3.64,3.64,0,0,0,.39.88.94.94,0,0,0,1,.56,1.16,1.16,0,0,0,.77-1,5,5,0,0,0-.24-1.35,11.2,11.2,0,0,1-.79-3A2.62,2.62,0,0,0,40,89.88a6.05,6.05,0,0,0-3.51-1.3,3,3,0,0,1-1.82-.51,1.77,1.77,0,0,1-.57-.79.83.83,0,0,1,1-1c1.38.34,2.75.74,4.11,1.13a.94.94,0,0,1,.39.3c1.08,1.21,2.15,2.43,3.23,3.65A.66.66,0,0,1,43,92c-.18.79.29,1.33,1.17,1.36a.89.89,0,0,1,.73.36c.44.53.9,1,1.39,1.58l.94-1a2.43,2.43,0,0,1,.75,1.9,6.76,6.76,0,0,0,0,1.1,2,2,0,0,0,1.4,1.91,3.31,3.31,0,0,1,1.93,1.65,3.72,3.72,0,0,0,3.94,1.75,1.26,1.26,0,0,0,.91-1.1,1,1,0,0,0-.74-1.07,14.06,14.06,0,0,0-1.45-.21,1,1,0,0,1-1-1c0-.33,0-.67-.07-1a.76.76,0,0,0-.78-.8c-.44-.05-.89-.05-1.33-.07s-.83-.14-.94-.64a.91.91,0,0,1,.5-1,4.46,4.46,0,0,1,.63-.28.94.94,0,0,0,.66-.91,1.27,1.27,0,0,0-.55-.81,7.62,7.62,0,0,0-1.49-.56c-.33-.12-.67-.21-1.07-.34.52-.6,1-1.15,1.49-1.68.06-.07.24-.07.36,0a3.39,3.39,0,0,1,2.43,2,13.06,13.06,0,0,1,.89,2.35,4.51,4.51,0,0,0,2.33,3c1.55.8,2,1.28,1.63,3.56a1.35,1.35,0,0,1-1.11,1.3c-1,.26-2,.66-3.08.91a3,3,0,0,1-2.51-.77c-.49-.38-.87-.9-1.33-1.32s-1.07-1-1.62-1.41a15.13,15.13,0,0,1-1.43-1.2A2.41,2.41,0,0,1,46,97.4a4.74,4.74,0,0,0,0-1.19,1.09,1.09,0,0,0-1-1c-.5-.1-.8.19-1.06.57a2.28,2.28,0,0,0-.28,2,21.91,21.91,0,0,0,1,2.48,4.53,4.53,0,0,0,1.53,1.67c.63.48,1.2,1,1.78,1.57s1,.91,1.42,1.36l-.85.18Z" transform="translate(-16.32 -44.95)"/><path class="cls-2" d="M16.32,73.21c.09.11.26.21.28.33.13.81.26,1.63.34,2.45a8,8,0,0,1,0,1.47,5.7,5.7,0,0,1-.26,1l-.14,0L16.32,77Z" transform="translate(-16.32 -44.95)"/><path class="cls-3" d="M47.32,45l0,.1H44.93V45Z" transform="translate(-16.32 -44.95)"/><path class="cls-4" d="M46.23,69.88a2.3,2.3,0,0,0,1.48-1.42,5.64,5.64,0,0,1,2-2.2c.56-.4,1.09-.85,1.65-1.25a2.3,2.3,0,0,1,2.23-.59,2.56,2.56,0,0,0,1.17,0,1.29,1.29,0,0,1,.94.2c.79.48,1.59.92,2.38,1.38a.82.82,0,0,1,.29.23,16.23,16.23,0,0,1,1.29,1.82A6.25,6.25,0,0,1,60,69.52c0,.06,0,.13,0,.18.54,1.27.21,2.6.31,3.9a.72.72,0,0,1-.13.42q-1.83,2.61-3.7,5.2a1.38,1.38,0,0,1-.58.42,1.29,1.29,0,0,0-.84,1,1.16,1.16,0,0,1-.62.84,6.08,6.08,0,0,0-1,.91,13.29,13.29,0,0,1-1.25,1.34A5.33,5.33,0,0,0,50.53,86a1.41,1.41,0,0,1-.72.78,5,5,0,0,0-.73.47,2.89,2.89,0,0,0-1,1.48,4.31,4.31,0,0,1-1,1.32,5.4,5.4,0,0,1-.83.61,6,6,0,0,1-2-2.19,2.16,2.16,0,0,0-.69-.75,13.19,13.19,0,0,1-2.36-2.42,2.81,2.81,0,0,1-.61-.9,5.76,5.76,0,0,0-2.16-2.68,3.89,3.89,0,0,1-1.23-1.26c0-.07-.07-.16-.13-.19-1-.52-1.3-1.66-2-2.45s-1.36-1.62-2.07-2.4a2,2,0,0,1-.5-1.24,2.85,2.85,0,0,0-.3-1,2.5,2.5,0,0,1-.1-2.36,1.77,1.77,0,0,0,.15-1,2.73,2.73,0,0,1,.36-1.89c1.22-2.3,3.31-3.33,5.73-3.88a.48.48,0,0,1,.26,0,13.48,13.48,0,0,1,3.83,1.72,2.85,2.85,0,0,1,1,1.19,5,5,0,0,0,.93,1.23C45,68.8,45.62,69.33,46.23,69.88Z" transform="translate(-16.32 -44.95)"/><path class="cls-4" d="M159.54,76.4V69c0-.48,0-1-.09-1.42a3.4,3.4,0,0,0-.21-.89,1.82,1.82,0,0,0-1.56-1.32,2.3,2.3,0,0,0-2.11,1,3.49,3.49,0,0,0-.73,2.27c0,2.44,0,4.87,0,7.31v.52h-6.6v-.49c0-2.43,0-4.85,0-7.27a8.16,8.16,0,0,0-.18-1.64,1.87,1.87,0,0,0-1.53-1.63,2.24,2.24,0,0,0-2.27,1,3.7,3.7,0,0,0-.7,2.42q0,3.57,0,7.13v.52h-6.61V60.9h6.29v3c1.32-2,3-3.43,5.53-3.48a5.61,5.61,0,0,1,5.49,3.43,6.65,6.65,0,0,1,2.31-2.45,6.11,6.11,0,0,1,6.53-.12,5.91,5.91,0,0,1,2.41,3.16,10,10,0,0,1,.66,3.55c0,2.79,0,5.58,0,8.4Z" transform="translate(-16.32 -44.95)"/><path class="cls-4" d="M197.81,83.33l.5-4.62c.68.05,1.31.11,1.95.14a3.32,3.32,0,0,0,3.36-1.43,7.31,7.31,0,0,0,.68-2.12,12.14,12.14,0,0,0,.16-1.71,2.31,2.31,0,0,0-.22.26,5.56,5.56,0,0,1-5.8,2.79,5.91,5.91,0,0,1-5.39-5,16.62,16.62,0,0,1-.37-3.14c-.05-2.57,0-5.15,0-7.73,0,0,0-.09,0-.16h6.61v.48c0,2.72,0,5.43,0,8.15a3,3,0,0,0,.64,2.06,2.19,2.19,0,0,0,3.68-.85,5.73,5.73,0,0,0,.35-1.93c0-2.47,0-4.94,0-7.4v-.52h6.6a.51.51,0,0,1,0,.14c0,4.22,0,8.43,0,12.65A12.42,12.42,0,0,1,209,79.54a8,8,0,0,1-6.22,4A13.6,13.6,0,0,1,197.81,83.33Z" transform="translate(-16.32 -44.95)"/><path class="cls-4" d="M99.67,80.51l-6.46,1.24a.74.74,0,0,1-.15,0V60.83h6.59v2.55l.07,0c.15-.23.29-.48.44-.71a5.26,5.26,0,0,1,5-2.24c4.92.26,8.07,4.76,7.21,9.62A7.65,7.65,0,0,1,107,76.36a6.12,6.12,0,0,1-3.76.16A5.29,5.29,0,0,1,100,74c-.07-.13-.16-.26-.24-.39s0,0-.07,0Zm6.25-11.93a3.17,3.17,0,0,0-3.33-3.19,3.06,3.06,0,0,0-2.9,3.08,3.12,3.12,0,0,0,3.19,3.22A3.06,3.06,0,0,0,105.92,68.58Z" transform="translate(-16.32 -44.95)"/><path class="cls-1" d="M37.07,103.52c-1.62-.68-3.24-1.35-4.85-2-.14-.06-.23-.24-.31-.38a10.7,10.7,0,0,1-1.25-4.43,5.54,5.54,0,0,0-1.61-4c-.42-.37-.78-.82-1.21-1.19a4.09,4.09,0,0,1-1.6-3.67A1.87,1.87,0,0,0,25,85.72c-.19-.08-.37-.21-.56-.31a4.35,4.35,0,0,1-2.19-2.65c-.16-.48-.33-1-.53-1.42a2.94,2.94,0,0,0-.47-.73.76.76,0,0,0-1-.14,1,1,0,0,0-.4.69,2.66,2.66,0,0,0,.13,1.08c.27.89.61,1.76.9,2.65a2.94,2.94,0,0,0,1.4,1.69c.3.17.59.34.87.52a2,2,0,0,1,1,1.72,4.87,4.87,0,0,0,1.61,3.58c.71.72,1.44,1.42,2.12,2.17a4.16,4.16,0,0,1,.73,1.09.92.92,0,0,1-.26,1.17c-.38.31-.74.19-1.14,0A10,10,0,0,1,25,94.6a9.46,9.46,0,0,1-2.65-4.69,2.88,2.88,0,0,0-1.23-1.78,5.73,5.73,0,0,1-2.51-4.49,14.61,14.61,0,0,0-.43-2.15,2.68,2.68,0,0,1,.26-2.22A4,4,0,0,0,19,76.06c-.22-1.27-.45-2.53-.66-3.8a4.58,4.58,0,0,0-1.24-2.36.78.78,0,0,1-.21-.83c.35-1.34.69-2.69,1-4l.22,0a6.12,6.12,0,0,1,0,1.28,2.86,2.86,0,0,0,.91,2.91,4.15,4.15,0,0,0,1.3.64c.75.26,1.52.46,2.28.69.2.06.41.12.61.16a.89.89,0,0,0,.94-.44.92.92,0,0,0,0-1.08A2.66,2.66,0,0,0,22,68.05a4.45,4.45,0,0,1-1.48-.35,1.3,1.3,0,0,1-.56-.74.71.71,0,0,1,.71-.94,5.08,5.08,0,0,0,1,0c.27-.06.66-.21.73-.41a1,1,0,0,0-.18-.91,3.35,3.35,0,0,0-1.22-.76,5.41,5.41,0,0,1-2.05-1.17l.81-1.65c1,.52,1.93,1,2.84,1.55a3.61,3.61,0,0,1,1.59,2.87,6.6,6.6,0,0,0,1.6,3.3,1.89,1.89,0,0,0,1.86.51,5.56,5.56,0,0,1,1.35,0c.27,0,.39.23.34.53-.07.47-.11.94-.17,1.49l-1-.12-.55-.07a.77.77,0,0,0-.84.32.76.76,0,0,0,.13.94A12.57,12.57,0,0,1,28.94,76a2.7,2.7,0,0,0,1.88,1.68.54.54,0,0,1,.26.16c.58.69,1.15,1.39,1.77,2.15-1.06-.24-2.06-.45-3.05-.71A2.94,2.94,0,0,1,28.08,78a19.86,19.86,0,0,1-2.21-4.42,5.89,5.89,0,0,0-.42-.92,1,1,0,0,0-1.2-.49,1.12,1.12,0,0,0-.51,1.3c.45,1.11.88,2.22,1.42,3.28a31.61,31.61,0,0,0,1.65,2.71,4.46,4.46,0,0,0,2.76,1.91c1.61.42,3.21.89,4.82,1.33.22.06.47,0,.7.08a.71.71,0,0,1,.39.14c.46.49.9,1,1.43,1.6-1.61-.26-3.14.1-4.63-.39-1.31-.43-2.63-.81-4-1.18a4.4,4.4,0,0,1-2.57-1.81c-.81-1.21-1.61-2.42-2.39-3.65a11,11,0,0,1-1.16-3.75,9.27,9.27,0,0,0-.46-1.44.93.93,0,0,0-1.25-.54A1,1,0,0,0,20,73a15.49,15.49,0,0,1,.78,2.91,5.68,5.68,0,0,0,1.86,3.86,5.86,5.86,0,0,1,1.18,1.84,6.38,6.38,0,0,0,5.16,3.65l1.13.18a2.69,2.69,0,0,1,2,1.53c.35.66.71,1.32,1.12,2a7.28,7.28,0,0,1,1,2.49,3.17,3.17,0,0,0,.63,1.5,6.34,6.34,0,0,1,1.63,3.67,4.31,4.31,0,0,0,2.21,3.1c.87.57,1.69,1.21,2.52,1.83a.93.93,0,0,1,.36.46,1.3,1.3,0,0,1,0,.86,1,1,0,0,1-.79.29,3.3,3.3,0,0,1-1.22-.49c-.84-.55-1.65-1.17-2.48-1.74a5.38,5.38,0,0,1-2.38-3.77c-.11-.72-.3-1.44-.48-2.15a2.24,2.24,0,0,0-.3-.71,1.07,1.07,0,0,0-1.22-.5,1.09,1.09,0,0,0-.52,1.18c.19,1,.42,1.91.64,2.87.11.47.2,1,.35,1.42a5.63,5.63,0,0,0,2.19,2.87l1.84,1.37ZM32.34,91.3a7.49,7.49,0,0,0-.45-1.06c-.49-.77-1-1.51-1.53-2.24a1.93,1.93,0,0,0-1.22-.91A.94.94,0,0,0,28,88.22a2.26,2.26,0,0,0,.34.74c.52.76,1.07,1.5,1.63,2.22a2.93,2.93,0,0,0,.81.8,1.18,1.18,0,0,0,.93.09C32,92,32.15,91.57,32.34,91.3Z" transform="translate(-16.32 -44.95)"/><path class="cls-4" d="M127.08,63.84v-3.4h6.58v16h-6.57V73.77a13.67,13.67,0,0,1-1.62,1.77,5.71,5.71,0,0,1-4.86,1,8.15,8.15,0,0,1-6.46-8.81,7.88,7.88,0,0,1,6.46-7.22,5.6,5.6,0,0,1,6.27,3l.12.27Zm-6.29,4.75A3.12,3.12,0,0,0,124,71.71a3.15,3.15,0,1,0-3.22-3.12Z" transform="translate(-16.32 -44.95)"/><path class="cls-4" d="M225.94,64V60.44h6.61v16H226V73.58c-.11.14-.17.19-.21.26a5.76,5.76,0,0,1-6.32,2.75A8.13,8.13,0,0,1,213,68a7.75,7.75,0,0,1,4.63-6.87,6.26,6.26,0,0,1,4.12-.57,5.37,5.37,0,0,1,3.91,3l.14.29Zm-6.33,4.6a3.11,3.11,0,0,0,3.19,3.16,3.15,3.15,0,0,0,.09-6.29A3.15,3.15,0,0,0,219.61,68.55Z" transform="translate(-16.32 -44.95)"/><path class="cls-4" d="M180.7,55.61l6.7-1v.55q0,7.17,0,14.35c0,1.67.49,2.15,2.15,2a13.36,13.36,0,0,0,1.32-.26c0,.61.08,1.23.11,1.85s.08,1.44.09,2.16a.5.5,0,0,1-.17.4,9.32,9.32,0,0,1-6.43.74,5,5,0,0,1-3.58-4.2,10.37,10.37,0,0,1-.19-2q0-7.14,0-14.3Z" transform="translate(-16.32 -44.95)"/><path class="cls-4" d="M175.91,60.63v9c0,.14,0,.28,0,.42a1.44,1.44,0,0,0,2,1.49c.2-.06.4-.15.67-.25,0,.54.1,1.07.14,1.59.07.81.14,1.62.18,2.43a.66.66,0,0,1-.2.49c-1.64,1.08-5.5,1.52-7.47-.2a5.69,5.69,0,0,1-1.95-3.93c-.11-1.29-.09-2.6-.1-3.9,0-2.36,0-4.71,0-7.1Z" transform="translate(-16.32 -44.95)"/><path class="cls-1" d="M44.93,45h2.36a5.34,5.34,0,0,1,1.53,2.58,4.71,4.71,0,0,0,1.77,2.55c1.19.94,2.34,1.93,3.56,2.83a5.28,5.28,0,0,0,1.81.85,4.59,4.59,0,0,1,2.81,1.91,5.46,5.46,0,0,1,.36.48,4.4,4.4,0,0,0,4.06,2c.45,0,.89,0,1.33.06a1.68,1.68,0,0,1,1.27.74l2.95,4A1.27,1.27,0,0,1,69,64.41a1.33,1.33,0,0,1-.65.72,1,1,0,0,1-.81-.36c-.87-1.07-1.75-2.14-2.51-3.29a3.79,3.79,0,0,0-3.31-1.71c-.37,0-.74,0-1.1,0a2.27,2.27,0,0,1-1.9-.95c-.35-.47-.68-1-1-1.44a3.51,3.51,0,0,0-2.06-1.52,7.82,7.82,0,0,1-3.06-1.69c-1.26-1.06-2.63-2-3.92-3.05a4.71,4.71,0,0,0-2.7-.69c-.78-.08-1.55-.21-2.33-.26a15.1,15.1,0,0,0-2.33,0,2.37,2.37,0,0,1-2.71-1.48c-.36-.76-.69-1.53-1.06-2.37.61-.17,1.19-.33,1.78-.47.08,0,.24.11.29.2.18.36.3.74.49,1.09a5,5,0,0,0,.66,1,.8.8,0,0,0,1.32-.19,7.11,7.11,0,0,0,.34-.8A.84.84,0,0,1,44,46.9c.22.28.34.66.58.93a4.87,4.87,0,0,0,1.1,1,.89.89,0,0,0,1.22-.3,1,1,0,0,0-.06-1.23c-.57-.68-1.17-1.34-1.75-2A1.09,1.09,0,0,1,44.93,45Z" transform="translate(-16.32 -44.95)"/><path class="cls-5" d="M30.81,49.29l1.43-.8a.43.43,0,0,1,.31,0,2.6,2.6,0,0,0,1.74-.15,1.73,1.73,0,0,1,2.4.88c.48.93.83,1.93,1.25,2.89a10.65,10.65,0,0,0,.69,1.49,1.06,1.06,0,0,0,1.23.5c.51-.15.64-.57.67-1a3.4,3.4,0,0,1,.07-.46c.12-.65.43-1,.86-1a1.26,1.26,0,0,1,1.09,1.13c0,.29,0,.59,0,.88a2.25,2.25,0,0,0,.89,1.83,9.47,9.47,0,0,0,3.67,1.93,3.36,3.36,0,0,1,2.7,3c.1.6.26,1.19.4,1.82-.4.26-.84.55-1.3.82a.33.33,0,0,1-.24,0c-.59-.16-1.16-.38-1.75-.48a2.26,2.26,0,0,1-2.12-1.88,6.12,6.12,0,0,0-2.85-4.18,3.2,3.2,0,0,0-2.18-.73,3.85,3.85,0,0,1-3.59-2.05,4.62,4.62,0,0,1-.43-1.52c-.11-.49-.17-1-.32-1.48a.94.94,0,0,0-1-.67.69.69,0,0,0-.77.81c0,.4.07.79.06,1.19,0,.72-.57,1-1.16.63a2.51,2.51,0,0,1-.7-1C31.46,50.92,31.16,50.14,30.81,49.29ZM48.08,60.14a1,1,0,0,0-1.16-1c-.51,0-.71.21-.71.74a1.11,1.11,0,0,0,1,1.1C47.79,60.93,48.08,60.66,48.08,60.14Z" transform="translate(-16.32 -44.95)"/><path class="cls-1" d="M63.06,68.15a.68.68,0,0,1,.16.09l5,4.64a5.51,5.51,0,0,0,3,1.51,3.79,3.79,0,0,1,2.54,1.52,6.4,6.4,0,0,0,2.26,2,.34.34,0,0,1,.17.27c-.05.53-.13,1-.21,1.62A6.63,6.63,0,0,1,73.07,78a10.34,10.34,0,0,0-1.36-1.29c-1-.7-1.82-.25-2,.94-.07.6-.28,1.19-.4,1.79a3.62,3.62,0,0,0-.11,1.13,1.54,1.54,0,0,0,.4.83.66.66,0,0,0,1.13-.22c.18-.37.3-.77.46-1.14s.38-.69.86-.6a1,1,0,0,1,.72,1,3.61,3.61,0,0,1-.12,1.09,4.52,4.52,0,0,0,1,4.53.86.86,0,0,1,.14,1.09c-.24.43-.43.88-.64,1.34a5.28,5.28,0,0,1-2-2.78,4.43,4.43,0,0,0-2.08-2.62,6,6,0,0,1-1.18-.94,2.37,2.37,0,0,1-.6-2.66c.21-.59.47-1.16.66-1.76a5.2,5.2,0,0,0,.27-1.29A1.62,1.62,0,0,0,67,74.51a3.3,3.3,0,0,1-2.11-1.82,9.91,9.91,0,0,0-1.15-1.47.83.83,0,0,1-.19-.34C63.35,70,63.21,69.06,63.06,68.15Z" transform="translate(-16.32 -44.95)"/><path class="cls-1" d="M56.78,83.45a6.65,6.65,0,0,0,3,2.92,4.66,4.66,0,0,0,.45.22.82.82,0,0,0,.94-1.32,11.47,11.47,0,0,0-1.16-1,3.86,3.86,0,0,1-1.47-2.47.4.4,0,0,1,0-.29c.44-.52.89-1,1.4-1.61a3.93,3.93,0,0,1,.06.44,3.82,3.82,0,0,0,1,2.48,24.65,24.65,0,0,1,3.9,5.81,5.94,5.94,0,0,0,1.65,2,4,4,0,0,1,.65.71,1,1,0,0,1,.06,1.19A1.05,1.05,0,0,1,66,93a2.86,2.86,0,0,1-1.17-.74,14.67,14.67,0,0,1-1.46-2.11,4.16,4.16,0,0,0-2.62-1.94c-.73-.2-1.48-.37-2.21-.6A4.78,4.78,0,0,1,56.12,86c-.23-.29-.48-.56-.76-.88Z" transform="translate(-16.32 -44.95)"/><path class="cls-1" d="M76.29,75.64c-.4-.47-.79-.92-1.16-1.38a4.68,4.68,0,0,0-2.42-1.68,10.88,10.88,0,0,1-4.52-2.52c-.62-.57-1.34-1-2-1.6a16.06,16.06,0,0,1-1.75-1.75A14,14,0,0,0,62,64.25a4.27,4.27,0,0,1-1-1.21.93.93,0,0,1,.12-1.11.94.94,0,0,1,1.19-.15,3.51,3.51,0,0,1,.87.66c.77.83,1.5,1.7,2.24,2.56a12.23,12.23,0,0,0,2.75,2.42,5.58,5.58,0,0,1,1,.83A7.19,7.19,0,0,0,71.81,70l3.3,1.38c.23.09.45.2.67.3a.79.79,0,0,1,.52.82C76.28,73.53,76.29,74.56,76.29,75.64Z" transform="translate(-16.32 -44.95)"/><path class="cls-4" d="M172.71,58.31a3.53,3.53,0,0,1-3.39-1.94,3.07,3.07,0,0,1,1.46-4,3.73,3.73,0,0,1,4.65.9,3.09,3.09,0,0,1-1.65,4.88A7.27,7.27,0,0,1,172.71,58.31Z" transform="translate(-16.32 -44.95)"/><path class="cls-6" d="M52.23,88.63c.43-.49.92-1.07,1.44-1.63a.38.38,0,0,1,.38,0,3.62,3.62,0,0,1,.7.87A3.5,3.5,0,0,1,55,88.93,5.54,5.54,0,0,0,56,91.34c.56.8,1.07,1.65,1.68,2.41a16.42,16.42,0,0,0,1.83,2c.79.74,1.64,1.42,2.49,2.1a13.47,13.47,0,0,0,1.18.79l1,.6c-.78.35-1.22,1.1-2.11,1.11a.75.75,0,0,0-.6.35,1.52,1.52,0,0,1-.9.77l-.85.45c.1-.68.19-1.3.29-1.93a2.21,2.21,0,0,0-1-2.31,2.25,2.25,0,0,0-.35-.22,5.78,5.78,0,0,1-3-3.39,19.76,19.76,0,0,0-1.22-2.2c-.35-.63-.69-1.27-1.08-1.87C53,89.54,52.62,89.14,52.23,88.63Z" transform="translate(-16.32 -44.95)"/><path class="cls-5" d="M29,50.45c.31.56.61,1.06.89,1.59s.47,1,.74,1.47A2.56,2.56,0,0,0,33,54.79a3.9,3.9,0,0,1,3.78,3.83,3.35,3.35,0,0,0,.83,2.63c-.72.21-1.44.42-2.16.61a.51.51,0,0,1-.27,0c-.42-.07-.83-.17-1.25-.22a1.75,1.75,0,0,1-1.49-1,.91.91,0,0,1,.14-1,.72.72,0,0,1,.87-.18,4.78,4.78,0,0,0,.9.18c.53,0,.79-.26.77-.8a2,2,0,0,0-1.48-1.68c-.53-.15-1.07-.25-1.61-.36a3.84,3.84,0,0,1-2.73-2.06c-.35-.64-.63-1.32-.94-2-.19-.4-.4-.79-.63-1.25Z" transform="translate(-16.32 -44.95)"/><path class="cls-6" d="M32.87,63.31a11.87,11.87,0,0,0-2.76,3.45c-.05-.57-.09-1.13-.17-1.69a10.15,10.15,0,0,0-.3-1.35c-.27-.93-.6-1.86-.85-2.8a5.22,5.22,0,0,0-3.6-3.73A6.34,6.34,0,0,1,23,56.13l1-1.23.35.11a.71.71,0,0,0,.93-.86.67.67,0,0,1,.28-.84c.25-.2.47-.44.76-.71.25.79.53,1.49.71,2.23a3.66,3.66,0,0,0,1.86,2.5,2.92,2.92,0,0,1,1.69,3.12,4.13,4.13,0,0,0,0,.5,2.18,2.18,0,0,0,1.77,2.22Z" transform="translate(-16.32 -44.95)"/><path class="cls-1" d="M72.16,90.4l-1.08,1.68a10.6,10.6,0,0,1-3.43-3.46,32.23,32.23,0,0,0-5.19-7,2,2,0,0,1-.5-.94c-.11-.52.22-.84.76-.85a2.15,2.15,0,0,1,1.62.84c.42.46.76,1,1.17,1.47.78.9,1.54,1.82,2.38,2.66a4.74,4.74,0,0,1,1.28,1.87,7,7,0,0,0,2.33,3.18Z" transform="translate(-16.32 -44.95)"/><path class="cls-1" d="M54,61.23l-2,.28a13.16,13.16,0,0,1-.6-2.06,4.68,4.68,0,0,0-3-3.69c-1-.47-2-.87-3-1.35a2.66,2.66,0,0,1-.91-.79.93.93,0,0,1,0-1.12,1,1,0,0,1,1-.32,10,10,0,0,1,3.15,1.55c1,.66,2,1.39,3,2.08A3,3,0,0,1,53,58.4,3.75,3.75,0,0,0,54,61.23Z" transform="translate(-16.32 -44.95)"/><path class="cls-6" d="M66.81,97l-1.34,1.19c-1.63-1.43-3.24-2.84-4.84-4.26a5.84,5.84,0,0,1-.51-.59l-2.18-2.47c-.2-.23-.43-.44-.61-.68A.75.75,0,0,1,58.17,89a.42.42,0,0,1,.13,0,9.64,9.64,0,0,1,3.19,2.5,11.36,11.36,0,0,0,2.8,2.86A23.86,23.86,0,0,1,66.81,97Z" transform="translate(-16.32 -44.95)"/><path class="cls-6" d="M20.71,59.35l1.1-1.68a4.35,4.35,0,0,0,2.12,1.22,4.78,4.78,0,0,1,3.24,3.3c.39,1.29.79,2.57,1.17,3.86.18.62,0,1.08-.44,1.26a1,1,0,0,1-1.27-.61c-.26-.63-.43-1.3-.64-2-.11-.34-.19-.68-.29-1a4.81,4.81,0,0,0-2.84-3.29C22.14,60.13,21.45,59.73,20.71,59.35Z" transform="translate(-16.32 -44.95)"/><path class="cls-7" d="M62.44,49.68a31.45,31.45,0,0,1,6.79,5.88c-.7.53-.46,1.13-.09,1.72s.89,1.32,1.31,2a2,2,0,0,1,.28.67A1,1,0,0,1,70.25,61a1.08,1.08,0,0,1-1.19-.38c-.63-1-1.25-2.07-1.84-3.12a1.77,1.77,0,0,1-.2-.85,3.6,3.6,0,0,0-1.76-3l-.9-.65a3.55,3.55,0,0,1-1.31-1.72C62.87,50.75,62.67,50.28,62.44,49.68Z" transform="translate(-16.32 -44.95)"/><path class="cls-6" d="M56.32,46.64c1,.45,2.07.89,3.1,1.35.12,0,.2.22.28.34a10.24,10.24,0,0,1,1.41,3.42,3.72,3.72,0,0,0,2.38,2.93,3.68,3.68,0,0,1,.77.56c.25.2.45.44.31.79a.8.8,0,0,1-.77.56,3.24,3.24,0,0,1-1.91-.54,5.09,5.09,0,0,1-2.6-3.95,6.41,6.41,0,0,0-1.78-3.85c-.45-.47-.85-1-1.27-1.49Z" transform="translate(-16.32 -44.95)"/><path class="cls-8" d="M96.85,91.51l.15-.62h1c-.24,1.35-.45,2.67-.71,4a10.31,10.31,0,0,1-.53,1.88C96.29,98,94.25,98.43,93.26,98a1.5,1.5,0,0,1-.92-1.52h.92a1.32,1.32,0,0,0,1.67.78,1.83,1.83,0,0,0,1.23-2,11.2,11.2,0,0,1-1.24.52,1.72,1.72,0,0,1-2.25-1.24,3.06,3.06,0,0,1,2-3.53A2,2,0,0,1,96.85,91.51Zm-.25,1.41a1.18,1.18,0,0,0-1.2-1.23,2,2,0,0,0-1.7,2.55,1.06,1.06,0,0,0,1.11.71A2,2,0,0,0,96.6,92.92Z" transform="translate(-16.32 -44.95)"/><path class="cls-8" d="M168.56,95.22a11.2,11.2,0,0,1-1.24.52,1.73,1.73,0,0,1-2.25-1.23A3.07,3.07,0,0,1,167,91a2,2,0,0,1,2.22.54l.15-.62h1c-.24,1.35-.46,2.67-.72,4a10.16,10.16,0,0,1-.52,1.89c-.48,1.19-2.52,1.66-3.51,1.19a1.49,1.49,0,0,1-.92-1.52h.91a1.32,1.32,0,0,0,1.67.78A1.83,1.83,0,0,0,168.56,95.22ZM166,93.68A1.15,1.15,0,0,0,167.23,95a1.93,1.93,0,0,0,1.75-2,1.16,1.16,0,0,0-1.35-1.24A2,2,0,0,0,166,93.68Z" transform="translate(-16.32 -44.95)"/><path class="cls-8" d="M118.93,96.41h.94a1.38,1.38,0,0,0,1.7.81c.79-.19,1.22-.9,1.26-2a10.73,10.73,0,0,1-1.09.5,1.85,1.85,0,0,1-2.55-2.08,3,3,0,0,1,2.28-2.67,1.94,1.94,0,0,1,2,.57l.15-.6h1c-.31,1.74-.61,3.46-.93,5.17A2.82,2.82,0,0,1,120,98,1.48,1.48,0,0,1,118.93,96.41Zm1.31-2.73A1.16,1.16,0,0,0,121.52,95a2,2,0,0,0,1.68-2.28,1.11,1.11,0,0,0-1.23-1A1.93,1.93,0,0,0,120.24,93.68Z" transform="translate(-16.32 -44.95)"/><path class="cls-8" d="M195.88,91.51l.13-.61h1c-.23,1.37-.45,2.73-.71,4.08a8.12,8.12,0,0,1-.55,1.88c-.52,1.18-2.62,1.58-3.58,1a1.48,1.48,0,0,1-.83-1.45h1a1.37,1.37,0,0,0,1.69.79c.78-.18,1.21-.87,1.27-2a11.66,11.66,0,0,1-1.08.5,1.87,1.87,0,0,1-2.56-2.12,3,3,0,0,1,2.27-2.63A2,2,0,0,1,195.88,91.51Zm-3.24,2.18A1.15,1.15,0,0,0,193.92,95a2,2,0,0,0,1.68-2.24,1.11,1.11,0,0,0-1.25-1A1.92,1.92,0,0,0,192.64,93.69Z" transform="translate(-16.32 -44.95)"/><path class="cls-6" d="M53,45.66c-.44.81-.37,1.15.29,1.65a6.36,6.36,0,0,0,.69.46,12.87,12.87,0,0,1,2.88,2.53,1.9,1.9,0,0,1,.43,1.06.63.63,0,0,1-.84.73,2.26,2.26,0,0,1-.87-.45c-.94-.74-1.81-1.55-2.77-2.25a5.09,5.09,0,0,1-2.15-2.92,8.08,8.08,0,0,0-.6-1.32Z" transform="translate(-16.32 -44.95)"/><path class="cls-9" d="M202.76,90.9h1l-.05.51c.48-.18.94-.4,1.43-.53a1.7,1.7,0,0,1,2.14,1.45,3.06,3.06,0,0,1-2.61,3.49,1.82,1.82,0,0,1-1.61-.74l-.54,3h-1Zm.56,2.75a1.17,1.17,0,0,0,1.31,1.28,2,2,0,0,0,1.64-2.24,1.11,1.11,0,0,0-1.3-1A1.94,1.94,0,0,0,203.32,93.65Z" transform="translate(-16.32 -44.95)"/><path class="cls-9" d="M130.64,95.07c-.18,1-.35,2-.53,3h-1c.42-2.39.83-4.76,1.25-7.14h1l0,.52a12.16,12.16,0,0,1,1.38-.52,1.71,1.71,0,0,1,2.2,1.58,3.06,3.06,0,0,1-2.59,3.35A1.82,1.82,0,0,1,130.64,95.07Zm.28-1.41a1.17,1.17,0,0,0,1.32,1.27,2,2,0,0,0,1.63-2.25,1.11,1.11,0,0,0-1.3-1A1.93,1.93,0,0,0,130.92,93.66Z" transform="translate(-16.32 -44.95)"/><path class="cls-9" d="M104,95.74h-1l.06-.51c-.44.17-.87.36-1.31.52a1.82,1.82,0,0,1-2.35-2.09,2.92,2.92,0,0,1,2.27-2.72,1.79,1.79,0,0,1,2,.57l.15-.61h1Zm-3.53-2A1.15,1.15,0,0,0,101.61,95a1.91,1.91,0,0,0,1.83-2,1.13,1.13,0,0,0-1.12-1.25A1.91,1.91,0,0,0,100.46,93.69Z" transform="translate(-16.32 -44.95)"/><path class="cls-9" d="M176.1,91.53l.13-.63h1l-.82,4.84h-1l.06-.51c-.44.17-.87.37-1.31.52a1.84,1.84,0,0,1-2.35-2.14,3,3,0,0,1,2.27-2.68A1.92,1.92,0,0,1,176.1,91.53Zm-3.24,2.15A1.15,1.15,0,0,0,174,95a1.91,1.91,0,0,0,1.83-2,1.13,1.13,0,0,0-1.11-1.25A1.9,1.9,0,0,0,172.86,93.68Z" transform="translate(-16.32 -44.95)"/><path class="cls-8" d="M151.27,92.88a3.19,3.19,0,0,1-2.5,2.88,2,2,0,0,1-2.57-1.36,2.92,2.92,0,0,1,2.1-3.47,2.14,2.14,0,0,1,2.5.74A5.16,5.16,0,0,1,151.27,92.88Zm-1.16,0a1.13,1.13,0,0,0-1.38-1.22,1.92,1.92,0,0,0-1.58,2A1.11,1.11,0,0,0,148.29,95,2,2,0,0,0,150.11,92.92Z" transform="translate(-16.32 -44.95)"/><path class="cls-8" d="M223.67,92.87a3.2,3.2,0,0,1-2.49,2.89,2,2,0,0,1-2.58-1.35,2.92,2.92,0,0,1,2.09-3.48,2.15,2.15,0,0,1,2.5.73A5.87,5.87,0,0,1,223.67,92.87Zm-1.17,0a1.13,1.13,0,0,0-1.38-1.22,1.92,1.92,0,0,0-1.57,2A1.11,1.11,0,0,0,220.69,95,2,2,0,0,0,222.5,92.92Z" transform="translate(-16.32 -44.95)"/><path class="cls-6" d="M74.39,64.27a4,4,0,0,0-1.1-.24,1,1,0,0,0-.86,1c0,.51.07,1,.1,1.51,0,.8-.19,1.14-.75,1.2a1.26,1.26,0,0,1-1.26-1.05,8,8,0,0,1,.6-3.77,1.5,1.5,0,0,1,1.18-.77l.37-.05c.76-.09.76-.09,1.07.62C74,63.26,74.18,63.79,74.39,64.27Z" transform="translate(-16.32 -44.95)"/><path class="cls-10" d="M152.52,98c.39-.68.79-1.33,1.15-2a1,1,0,0,0,.1-.63c-.28-1.37-.59-2.72-.89-4.08,0-.12,0-.24-.07-.38h1.1l.71,3.69.75-1.34c.34-.61.71-1.22,1-1.85a.76.76,0,0,1,.92-.53,2.71,2.71,0,0,0,.41,0l-.23.41c-1.18,2-2.39,4-3.53,6.07A1.07,1.07,0,0,1,152.52,98Z" transform="translate(-16.32 -44.95)"/><path class="cls-10" d="M225.19,90.89h1.12l.7,3.66c.1-.15.18-.25.24-.36.48-.87,1-1.72,1.42-2.62a1.06,1.06,0,0,1,1.41-.65c-.14.25-.28.5-.43.75-1.1,1.89-2.23,3.76-3.3,5.67-.33.59-.69.89-1.42.65a6.76,6.76,0,0,1,.62-1.07,2.6,2.6,0,0,0,.43-2.59C225.64,93.22,225.45,92.07,225.19,90.89Z" transform="translate(-16.32 -44.95)"/><path class="cls-8" d="M113.55,95.73h-1c.28-1.62.56-3.22.84-4.83h1v.46a2.41,2.41,0,0,1,1.94-.52,1.35,1.35,0,0,1,1.2,1.45c-.07.93-.26,1.85-.4,2.77,0,.23-.08.45-.13.67h-1c.16-.89.3-1.76.46-2.63.12-.69,0-1.14-.51-1.34a1.36,1.36,0,0,0-1.61.53,2.61,2.61,0,0,0-.31.86C113.84,94,113.7,94.87,113.55,95.73Z" transform="translate(-16.32 -44.95)"/><path class="cls-8" d="M140.5,95.73h-1l.84-4.83h1v.44a2.45,2.45,0,0,1,1.92-.5,1.34,1.34,0,0,1,1.2,1.45c-.06.91-.25,1.82-.39,2.72,0,.24-.09.48-.14.73h-1c.16-.9.31-1.77.46-2.64.12-.69,0-1.14-.5-1.34a1.37,1.37,0,0,0-1.62.53,2.84,2.84,0,0,0-.3.86C140.8,94,140.66,94.86,140.5,95.73Z" transform="translate(-16.32 -44.95)"/><path class="cls-8" d="M189.35,95.74h-1c.15-.88.29-1.73.44-2.59s0-1.26-.57-1.42a1.37,1.37,0,0,0-1.68.84,14.4,14.4,0,0,0-.35,1.61c-.1.51-.18,1-.27,1.55h-1l.84-4.83h1v.45a2.44,2.44,0,0,1,1.87-.52,1.36,1.36,0,0,1,1.26,1.5c-.07.91-.26,1.81-.4,2.72C189.45,95.28,189.4,95.5,189.35,95.74Z" transform="translate(-16.32 -44.95)"/><path class="cls-8" d="M212.88,95.74h-1c.28-1.62.56-3.21.84-4.84h1v.43l.18-.09a2.21,2.21,0,0,1,1.78-.39,1.33,1.33,0,0,1,1.17,1.42c-.07.93-.26,1.85-.4,2.77,0,.23-.08.45-.13.69h-1q.22-1.32.45-2.61c.13-.72-.05-1.19-.52-1.37a1.35,1.35,0,0,0-1.65.65,5.59,5.59,0,0,0-.34,1.23c-.12.61-.21,1.23-.32,1.85Z" transform="translate(-16.32 -44.95)"/><path class="cls-7" d="M43.63,62.76l-2.74-1.2a1,1,0,0,1-.29-.21c-.51-.57-1-1.13-1.52-1.71a2.74,2.74,0,0,1-.48-.78,1,1,0,0,1,.23-1.13.92.92,0,0,1,1.15,0,6,6,0,0,1,2.1,2c.29.47.51,1,.76,1.46S43.41,62.3,43.63,62.76Z" transform="translate(-16.32 -44.95)"/><path class="cls-6" d="M61.79,77.68c.28-.55.54-1.05.8-1.54,0-.07.13-.17.19-.17a18.9,18.9,0,0,1,2.26.12,1.44,1.44,0,0,1,1.08,1.72,1,1,0,0,1-1.34.85c-.44-.12-.86-.32-1.29-.46Z" transform="translate(-16.32 -44.95)"/><path class="cls-8" d="M107.19,95.74h-1l1.12-6.49h1Z" transform="translate(-16.32 -44.95)"/><path class="cls-8" d="M179.59,95.74h-1c.37-2.17.75-4.32,1.12-6.49h1Z" transform="translate(-16.32 -44.95)"/><path class="cls-8" d="M109.33,95.72l.88-4.82h1.05l-.88,4.82Z" transform="translate(-16.32 -44.95)"/><path class="cls-8" d="M182.78,95.73h-1.05c.29-1.62.58-3.21.88-4.83h1C183.36,92.51,183.07,94.1,182.78,95.73Z" transform="translate(-16.32 -44.95)"/><path class="cls-9" d="M137.13,90.9h1c-.28,1.62-.56,3.21-.84,4.83h-1C136.57,94.11,136.84,92.51,137.13,90.9Z" transform="translate(-16.32 -44.95)"/><path class="cls-9" d="M209.52,90.9h1c-.29,1.62-.56,3.21-.84,4.83h-1C209,94.11,209.24,92.51,209.52,90.9Z" transform="translate(-16.32 -44.95)"/><path class="cls-8" d="M232.21,89.6h1c-.28,1.45-.56,2.86-.84,4.29h-.82Z" transform="translate(-16.32 -44.95)"/><path class="cls-2" d="M75.9,69.47c-.31-.11-.49-.16-.66-.23a1.29,1.29,0,0,1-1-1.77l.49-2.27Z" transform="translate(-16.32 -44.95)"/><path class="cls-10" d="M55.75,59.77a1.14,1.14,0,0,1-1.17-1.2.78.78,0,0,1,.9-.81,1.08,1.08,0,0,1,1.12,1.18C56.6,59.52,56.34,59.77,55.75,59.77Z" transform="translate(-16.32 -44.95)"/><path class="cls-8" d="M68.18,95.66A1.12,1.12,0,0,1,67.93,94c.5-.7,1-.78,1.92-.26Z" transform="translate(-16.32 -44.95)"/><path class="cls-2" d="M56.69,61.6c.52-.34,1-.87,1.65-.52S59,62,59,62.65Z" transform="translate(-16.32 -44.95)"/><path class="cls-8" d="M157.75,96.88c.31-.73.62-1.45,1-2.17,0-.08.18-.14.28-.15s.51,0,.84,0c-.48.79-.92,1.54-1.4,2.25-.09.14-.4.13-.6.19Z" transform="translate(-16.32 -44.95)"/><path class="cls-2" d="M75,84.29c-.45-.77-.76-1.42-.35-2.18.21-.36.53-.46,1-.34Z" transform="translate(-16.32 -44.95)"/><path class="cls-11" d="M184.34,88.8a.93.93,0,0,1-.69,1.12c-.52.17-1,.44-1.52.67a.87.87,0,0,1,.57-1C183.25,89.38,183.77,89.08,184.34,88.8Z" transform="translate(-16.32 -44.95)"/><path class="cls-2" d="M110.81,90.23a.48.48,0,0,1-.47-.53.8.8,0,0,1,.74-.74.49.49,0,0,1,.54.54A.77.77,0,0,1,110.81,90.23Z" transform="translate(-16.32 -44.95)"/><path class="cls-2" d="M138.48,89.33a.8.8,0,0,1-.77.9.5.5,0,0,1-.51-.53c0-.37.42-.81.78-.73A1.4,1.4,0,0,1,138.48,89.33Z" transform="translate(-16.32 -44.95)"/><path class="cls-2" d="M210,90.23a.49.49,0,0,1-.44-.56.8.8,0,0,1,.77-.71.49.49,0,0,1,.5.53A.77.77,0,0,1,210,90.23Z" transform="translate(-16.32 -44.95)"/><path class="cls-11" d="M47.13,64.72l-.78.86L45,64.07Z" transform="translate(-16.32 -44.95)"/><path class="cls-2" d="M231.94,94.57a.49.49,0,0,1,.46.53.74.74,0,0,1-.76.65.46.46,0,0,1-.51-.52A.81.81,0,0,1,231.94,94.57Z" transform="translate(-16.32 -44.95)"/><path class="cls-2" d="M74.61,64.93v0s0,0,0,0a0,0,0,0,1,0,0Z" transform="translate(-16.32 -44.95)"/><path class="cls-1" d="M37.12,103.47l.1.08-.15,0Z" transform="translate(-16.32 -44.95)"/><polygon class="cls-11" points="28.65 19.09 28.68 19.09 28.68 19.11 28.65 19.09"/></svg>